<svg width="100" height="100" viewBox="0 0 100 100" fill="none" xmlns="http://www.w3.org/2000/svg">
<g id="instagram">
<path id="Path" d="M49.8832 0C77.4346 0 99.7668 22.3353 99.7668 49.8836C99.7668 77.4349 77.4346 99.7668 49.8832 99.7668C22.3319 99.7668 0 77.4346 0 49.8836C0 22.3353 22.3322 0 49.8832 0Z" fill="url(#paint0_linear)"/>
<path id="Shape" fill-rule="evenodd" clip-rule="evenodd" d="M38.4218 21.4287H61.478C70.848 21.4287 78.4712 29.0519 78.4713 38.4221V61.4782C78.4713 70.8484 70.8481 78.4716 61.478 78.4716H38.4218C29.0517 78.4716 21.4285 70.8484 21.4285 61.4782V38.4221C21.4285 29.0519 29.0517 21.4287 38.4218 21.4287ZM61.478 72.7331C67.6938 72.7331 72.7328 67.694 72.7328 61.4782V38.4221C72.7328 32.2061 67.6938 27.1672 61.478 27.1672H38.4218C32.206 27.1672 27.167 32.2061 27.167 38.4221V61.4782C27.167 67.694 32.206 72.7331 38.4218 72.7331H61.478Z" fill="white"/>
<path id="Shape_2" fill-rule="evenodd" clip-rule="evenodd" d="M35.1968 49.95C35.1968 41.8151 41.8151 35.1968 49.9501 35.1968C58.0851 35.1968 64.7034 41.815 64.7034 49.95C64.7034 58.085 58.0851 64.7033 49.9501 64.7033C41.8151 64.7033 35.1968 58.0849 35.1968 49.95ZM40.9353 49.9501C40.9353 54.9289 44.9713 58.9649 49.9501 58.9649C54.9288 58.9649 58.9649 54.9288 58.9649 49.9501C58.9649 44.9713 54.9289 40.9353 49.9501 40.9353C44.9714 40.9353 40.9353 44.9713 40.9353 49.9501Z" fill="white"/>
<path id="Oval" fill-rule="evenodd" clip-rule="evenodd" d="M64.732 38.8429C66.6844 38.8429 68.2672 37.2601 68.2672 35.3077C68.2672 33.3552 66.6844 31.7725 64.732 31.7725C62.7795 31.7725 61.1968 33.3552 61.1968 35.3077C61.1968 37.2601 62.7795 38.8429 64.732 38.8429Z" fill="white"/>
</g>
<defs>
<linearGradient id="paint0_linear" x1="99.2341" y1="99.4764" x2="99.2341" y2="0.774906" gradientUnits="userSpaceOnUse">
<stop stop-color="#E09B3D"/>
<stop offset="0.3" stop-color="#C74C4D"/>
<stop offset="0.6" stop-color="#C21975"/>
<stop offset="1" stop-color="#7024C4"/>
</linearGradient>
</defs>
</svg>
