<svg width="50" height="50" viewBox="0 0 50 50" fill="none" xmlns="http://www.w3.org/2000/svg">
<path d="M24.9416 0C38.7173 0 49.8834 11.1676 49.8834 24.9418C49.8834 38.7175 38.7173 49.8834 24.9416 49.8834C11.1659 49.8834 0 38.7173 0 24.9418C0 11.1676 11.1661 0 24.9416 0Z" fill="url(#paint0_linear)"/>
<path fill-rule="evenodd" clip-rule="evenodd" d="M19.2109 10.7144H30.739C35.424 10.7144 39.2356 14.5259 39.2357 19.211V30.7391C39.2357 35.4242 35.4241 39.2358 30.739 39.2358H19.2109C14.5258 39.2358 10.7142 35.4242 10.7142 30.7391V19.211C10.7142 14.5259 14.5258 10.7144 19.2109 10.7144ZM30.739 36.3665C33.8469 36.3665 36.3664 33.847 36.3664 30.7391V19.211C36.3664 16.1031 33.8469 13.5836 30.739 13.5836H19.2109C16.103 13.5836 13.5835 16.1031 13.5835 19.211V30.7391C13.5835 33.847 16.103 36.3665 19.2109 36.3665H30.739Z" fill="white"/>
<path fill-rule="evenodd" clip-rule="evenodd" d="M17.5984 24.975C17.5984 20.9076 20.9076 17.5984 24.975 17.5984C29.0425 17.5984 32.3517 20.9075 32.3517 24.975C32.3517 29.0425 29.0425 32.3516 24.975 32.3516C20.9076 32.3516 17.5984 29.0424 17.5984 24.975ZM20.4676 24.975C20.4676 27.4644 22.4857 29.4824 24.975 29.4824C27.4644 29.4824 29.4824 27.4644 29.4824 24.975C29.4824 22.4857 27.4644 20.4676 24.975 20.4676C22.4857 20.4676 20.4676 22.4857 20.4676 24.975Z" fill="white"/>
<path fill-rule="evenodd" clip-rule="evenodd" d="M32.366 19.4214C33.3422 19.4214 34.1336 18.63 34.1336 17.6538C34.1336 16.6776 33.3422 15.8862 32.366 15.8862C31.3898 15.8862 30.5984 16.6776 30.5984 17.6538C30.5984 18.63 31.3898 19.4214 32.366 19.4214Z" fill="white"/>
<defs>
<linearGradient id="paint0_linear" x1="49.6171" y1="49.7382" x2="49.6171" y2="0.387453" gradientUnits="userSpaceOnUse">
<stop stop-color="#E09B3D"/>
<stop offset="0.3" stop-color="#C74C4D"/>
<stop offset="0.6" stop-color="#C21975"/>
<stop offset="1" stop-color="#7024C4"/>
</linearGradient>
</defs>
</svg>
