<svg width="100" height="100" viewBox="0 0 100 100" fill="none" xmlns="http://www.w3.org/2000/svg">
<g id="messenger">
<path id="Oval" fill-rule="evenodd" clip-rule="evenodd" d="M50 100C77.6142 100 100 77.6142 100 50C100 22.3858 77.6142 0 50 0C22.3858 0 0 22.3858 0 50C0 77.6142 22.3858 100 50 100Z" fill="#F5F5F5"/>
<path id="Path" fill-rule="evenodd" clip-rule="evenodd" d="M50.7144 18.5713C32.9635 18.5713 18.5715 31.8945 18.5715 48.3316C18.5715 57.6972 23.2443 66.0503 30.5488 71.5066V82.857L41.4934 76.8503C44.4144 77.6579 47.5081 78.0958 50.7144 78.0958C68.4653 78.0958 82.8572 64.7726 82.8572 48.3356C82.8572 31.8945 68.4653 18.5713 50.7144 18.5713Z" fill="#1E88E5"/>
<path id="Path_2" fill-rule="evenodd" clip-rule="evenodd" d="M53.9085 58.6494L45.7242 49.9186L29.7532 58.6494L47.3192 39.9985L55.7045 48.7293L71.4786 39.9985L53.9085 58.6494Z" fill="#FAFAFA"/>
</g>
</svg>
