<svg width="50" height="50" viewBox="0 0 50 50" fill="none" xmlns="http://www.w3.org/2000/svg">
<path fill-rule="evenodd" clip-rule="evenodd" d="M25 50C38.8071 50 50 38.8071 50 25C50 11.1929 38.8071 0 25 0C11.1929 0 0 11.1929 0 25C0 38.8071 11.1929 50 25 50Z" fill="#F5F5F5"/>
<path fill-rule="evenodd" clip-rule="evenodd" d="M25.3572 9.28564C16.4817 9.28564 9.28577 15.9473 9.28577 24.1658C9.28577 28.8486 11.6222 33.0252 15.2744 35.7533V41.4285L20.7467 38.4252C22.2072 38.8289 23.7541 39.0479 25.3572 39.0479C34.2326 39.0479 41.4286 32.3863 41.4286 24.1678C41.4286 15.9473 34.2326 9.28564 25.3572 9.28564Z" fill="#1E88E5"/>
<path fill-rule="evenodd" clip-rule="evenodd" d="M26.9543 29.3247L22.8621 24.9593L14.8766 29.3247L23.6596 19.9993L27.8523 24.3647L35.7393 19.9993L26.9543 29.3247Z" fill="#FAFAFA"/>
</svg>
