<svg width="100" height="100" viewBox="0 0 100 100" fill="none" xmlns="http://www.w3.org/2000/svg">
<g id="telegram">
<rect id="Rectangle" width="100" height="100" rx="25" fill="#61A8DE"/>
<path id="Shape" fill-rule="evenodd" clip-rule="evenodd" d="M21.3966 48.5787L71.5205 29.046C73.4282 28.3025 75.3999 29.9723 74.9808 31.9764L66.4231 72.8909C66.0216 74.8108 63.7696 75.6731 62.1884 74.5124L49.2673 65.028L42.682 71.752C41.5262 72.9321 39.5297 72.4545 39.0331 70.879L34.2797 55.7958L21.5427 52.0346C19.8715 51.5412 19.7731 49.2114 21.3966 48.5787ZM41.954 58.7144L65.2363 38.1259C65.7937 37.6331 65.1463 36.7627 64.5141 37.1552L37.0201 54.2071C36.5361 54.5073 36.3159 55.0968 36.4848 55.6409L40.1728 67.5246C40.2504 67.7743 40.6141 67.7399 40.6433 67.48L41.5397 59.5116C41.5743 59.2037 41.7219 58.9196 41.954 58.7144Z" fill="white"/>
</g>
</svg>
