<svg width="50" height="50" viewBox="0 0 50 50" fill="none" xmlns="http://www.w3.org/2000/svg">
<rect width="50" height="50" rx="25" fill="#61A8DE"/>
<path fill-rule="evenodd" clip-rule="evenodd" d="M10.6983 24.2893L35.7602 14.523C36.7141 14.1513 37.7 14.9861 37.4904 15.9882L33.2115 36.4454C33.0108 37.4054 31.8848 37.8366 31.0942 37.2562L24.6337 32.514L21.341 35.876C20.7631 36.4661 19.7648 36.2273 19.5166 35.4395L17.1398 27.8979L10.7713 26.0173C9.93573 25.7706 9.88655 24.6057 10.6983 24.2893ZM20.977 29.3572L32.6181 19.0629C32.8968 18.8166 32.5731 18.3814 32.257 18.5776L18.5101 27.1036C18.268 27.2537 18.1579 27.5484 18.2424 27.8204L20.0864 33.7623C20.1252 33.8871 20.307 33.8699 20.3217 33.74L20.7699 29.7558C20.7871 29.6018 20.861 29.4598 20.977 29.3572Z" fill="white"/>
</svg>
