<svg width="100" height="100" viewBox="0 0 100 100" fill="none" xmlns="http://www.w3.org/2000/svg">
<g id="viber">
<rect id="Rectangle" width="100" height="100" rx="25" fill="#7D3DAF"/>
<g id="Group">
<path id="Shape" fill-rule="evenodd" clip-rule="evenodd" d="M77.977 34.4363L77.9942 34.5051C79.7141 42.3595 79.7141 50.3246 77.9942 58.1791L77.977 58.2479C76.5857 63.8721 70.3137 69.9071 64.5539 71.1627L64.4889 71.176C59.8318 72.0647 55.1402 72.508 50.4505 72.508C49.0702 72.508 47.6899 72.465 46.3103 72.3878L39.9494 78.9998C38.3747 80.6394 35.6057 79.5234 35.6057 77.2512V70.9731C30.0608 69.3896 24.2559 63.6319 22.9222 58.2477L22.9069 58.1789C21.187 50.3246 21.187 42.3595 22.9069 34.5051L22.9222 34.4363C24.3153 28.8122 30.5873 22.7772 36.3452 21.5216L36.4121 21.5082C45.7265 19.731 55.1727 19.731 64.4889 21.5082L64.5539 21.5216C70.3137 22.7772 76.5857 28.8122 77.977 34.4363ZM63.4856 66.1135C67.2695 65.2708 72.0318 60.7091 72.9605 57.04C74.5102 49.9405 74.5102 42.7436 72.9605 35.6439C72.0318 31.9747 67.2714 27.4131 63.4856 26.5704C54.8363 24.925 46.0647 24.925 37.4135 26.5704C33.6297 27.4131 28.8693 31.9747 27.9386 35.6439C26.3907 42.7434 26.3907 49.9403 27.9386 57.0398C28.8693 60.709 33.6297 65.2706 37.4135 66.1133L37.4164 66.1139C37.5851 66.147 37.7078 66.293 37.7078 66.4648V76.865C37.7078 77.3848 38.3423 77.6408 38.7034 77.2644L43.6434 72.1944L48.2878 67.4268C48.357 67.3557 48.4524 67.3173 48.5515 67.32C53.5393 67.4581 58.5321 67.0555 63.4856 66.1135Z" fill="white"/>
<path id="Path" fill-rule="evenodd" clip-rule="evenodd" d="M58.6814 61.8405C58.0997 61.6639 57.5453 61.5452 57.0305 61.3316C51.6956 59.1182 46.7858 56.2628 42.8967 51.8856C40.6851 49.3965 38.954 46.5863 37.4908 43.6123C36.7969 42.202 36.2121 40.7364 35.6161 39.2804C35.0726 37.9526 35.8731 36.5809 36.716 35.5805C37.507 34.6416 38.5248 33.9231 39.6271 33.3935C40.4875 32.9802 41.3361 33.2185 41.9645 33.9477C43.3228 35.5243 44.5706 37.1815 45.5809 39.0091C46.2022 40.1331 46.0317 41.5072 44.9057 42.2721C44.6321 42.4581 44.3827 42.6763 44.1278 42.8863C43.9042 43.0704 43.6938 43.2563 43.5405 43.5055C43.2604 43.9615 43.247 44.4993 43.4274 44.995C44.8159 48.8109 47.1564 51.7782 50.9972 53.3764C51.6117 53.6321 52.229 53.9298 52.937 53.8472C54.1228 53.7087 54.5068 52.408 55.3377 51.7285C56.1499 51.0644 57.1877 51.0556 58.0626 51.6092C58.9377 52.163 59.786 52.7576 60.6291 53.3584C61.4568 53.9481 62.2808 54.5251 63.0443 55.1974C63.7783 55.8439 64.0311 56.692 63.6178 57.5693C62.861 59.1761 61.7599 60.5129 60.1714 61.3662C59.7229 61.6068 59.1872 61.6847 58.6814 61.8405C59.1872 61.6847 58.0997 61.6637 58.6814 61.8405Z" fill="white"/>
<path id="Path_2" fill-rule="evenodd" clip-rule="evenodd" d="M50.4651 31.5561C57.4432 31.7516 63.1746 36.3826 64.4028 43.2814C64.6121 44.4569 64.6866 45.6587 64.7797 46.8518C64.8188 47.3536 64.5347 47.8304 63.9931 47.8369C63.4337 47.8436 63.182 47.3756 63.1457 46.874C63.0739 45.881 63.024 44.8836 62.8872 43.8989C62.1648 38.7007 58.0198 34.4001 52.8457 33.4773C52.0671 33.3384 51.2702 33.3019 50.4815 33.2191C49.9829 33.1667 49.33 33.1365 49.2195 32.5168C49.1268 31.9972 49.5654 31.5835 50.0602 31.5569C50.1947 31.5494 50.33 31.5556 50.4651 31.5561C50.33 31.5556 57.4432 31.7516 50.4651 31.5561Z" fill="white"/>
<path id="Path_3" fill-rule="evenodd" clip-rule="evenodd" d="M61.0696 45.3033C61.0581 45.3904 61.052 45.5953 61.001 45.7883C60.8158 46.4889 59.7536 46.5766 59.509 45.8695C59.4366 45.6597 59.4257 45.421 59.4253 45.1951C59.4228 43.7171 59.1016 42.2407 58.3563 40.9548C57.5902 39.6331 56.4197 38.522 55.0468 37.8497C54.2166 37.4432 53.3188 37.1906 52.409 37.04C52.0113 36.9743 51.6094 36.9343 51.2098 36.8787C50.7256 36.8115 50.467 36.5028 50.4899 36.0256C50.5113 35.5785 50.8381 35.2568 51.3254 35.2844C52.9269 35.3753 54.4737 35.7214 55.8974 36.4753C58.7926 38.0085 60.4464 40.4287 60.9291 43.6602C60.9509 43.8066 60.9861 43.9516 60.9971 44.0986C61.0245 44.4615 61.0417 44.8248 61.0696 45.3033C61.0417 44.8248 61.0581 45.3904 61.0696 45.3033Z" fill="white"/>
<path id="Path_4" fill-rule="evenodd" clip-rule="evenodd" d="M56.7293 45.1343C56.1454 45.1448 55.833 44.8216 55.7728 44.2864C55.7309 43.9131 55.6979 43.5349 55.6088 43.1718C55.4334 42.4567 55.0533 41.794 54.4517 41.3558C54.1677 41.1488 53.8459 40.998 53.5088 40.9008C53.0805 40.7771 52.6358 40.8111 52.2085 40.7064C51.7445 40.5927 51.4879 40.217 51.5609 39.7817C51.6272 39.3855 52.0126 39.0763 52.4455 39.1077C55.1509 39.303 57.0845 40.7016 57.3605 43.8866C57.38 44.1113 57.4029 44.3488 57.353 44.5638C57.2676 44.9319 56.9951 45.1163 56.7293 45.1343C56.9951 45.1163 56.1454 45.1448 56.7293 45.1343Z" fill="white"/>
</g>
</g>
</svg>
