<svg width="50" height="50" viewBox="0 0 50 50" fill="none" xmlns="http://www.w3.org/2000/svg">
<rect width="50" height="50" rx="25" fill="#7D3DAF"/>
<path fill-rule="evenodd" clip-rule="evenodd" d="M38.9885 17.2182L38.9971 17.2526C39.857 21.1797 39.857 25.1623 38.9971 29.0896L38.9885 29.124C38.2929 31.936 35.1569 34.9536 32.277 35.5813L32.2445 35.588C29.9159 36.0323 27.5701 36.254 25.2253 36.254C24.5351 36.254 23.8449 36.2325 23.1551 36.1939L19.9747 39.4999C19.1874 40.3197 17.8028 39.7617 17.8028 38.6256V35.4865C15.0304 34.6948 12.1279 31.8159 11.4611 29.1239L11.4534 29.0895C10.5935 25.1623 10.5935 21.1797 11.4534 17.2526L11.4611 17.2182C12.1577 14.4061 15.2937 11.3886 18.1726 10.7608L18.2061 10.7541C22.8632 9.86549 27.5863 9.86549 32.2445 10.7541L32.277 10.7608C35.1569 11.3886 38.2929 14.4061 38.9885 17.2182ZM31.7428 33.0568C33.6347 32.6354 36.0159 30.3546 36.4803 28.52C37.2551 24.9703 37.2551 21.3718 36.4803 17.822C36.0159 15.9874 33.6357 13.7066 31.7428 13.2852C27.4182 12.4625 23.0324 12.4625 18.7067 13.2852C16.8148 13.7066 14.4346 15.9874 13.9693 17.822C13.1953 21.3717 13.1953 24.9702 13.9693 28.5199C14.4346 30.3545 16.8148 32.6353 18.7067 33.0567L18.7082 33.057C18.7926 33.0735 18.8539 33.1465 18.8539 33.2324V38.4325C18.8539 38.6924 19.1711 38.8204 19.3517 38.6322L21.8217 36.0972L24.1439 33.7134C24.1785 33.6778 24.2262 33.6586 24.2758 33.66C26.7697 33.7291 29.266 33.5277 31.7428 33.0568Z" fill="white"/>
<path fill-rule="evenodd" clip-rule="evenodd" d="M29.3407 30.9202C29.0498 30.832 28.7726 30.7726 28.5152 30.6658C25.8478 29.5591 23.3929 28.1314 21.4483 25.9428C20.3425 24.6982 19.477 23.2931 18.7454 21.8062C18.3984 21.101 18.1061 20.3682 17.808 19.6402C17.5363 18.9763 17.9365 18.2905 18.358 17.7902C18.7535 17.3208 19.2624 16.9615 19.8136 16.6968C20.2437 16.4901 20.6681 16.6092 20.9822 16.9739C21.6614 17.7622 22.2853 18.5908 22.7905 19.5045C23.1011 20.0666 23.0159 20.7536 22.4529 21.1361C22.316 21.229 22.1914 21.3382 22.0639 21.4432C21.9521 21.5352 21.8469 21.6282 21.7703 21.7528C21.6302 21.9807 21.6235 22.2496 21.7137 22.4975C22.408 24.4055 23.5782 25.8891 25.4986 26.6882C25.8059 26.816 26.1145 26.9649 26.4685 26.9236C27.0614 26.8543 27.2534 26.204 27.6688 25.8642C28.0749 25.5322 28.5939 25.5278 29.0313 25.8046C29.4688 26.0815 29.893 26.3788 30.3146 26.6792C30.7284 26.9741 31.1404 27.2625 31.5221 27.5987C31.8891 27.9219 32.0156 28.346 31.8089 28.7847C31.4305 29.5881 30.8799 30.2564 30.0857 30.6831C29.8615 30.8034 29.5936 30.8424 29.3407 30.9202C29.5936 30.8424 29.0498 30.8319 29.3407 30.9202Z" fill="white"/>
<path fill-rule="evenodd" clip-rule="evenodd" d="M25.2326 15.7781C28.7216 15.8758 31.5873 18.1913 32.2014 21.6407C32.306 22.2285 32.3433 22.8294 32.3898 23.4259C32.4094 23.6768 32.2673 23.9152 31.9965 23.9185C31.7169 23.9218 31.591 23.6878 31.5729 23.437C31.5369 22.9405 31.512 22.4418 31.4436 21.9494C31.0824 19.3503 29.0099 17.2001 26.4228 16.7386C26.0336 16.6692 25.6351 16.6509 25.2408 16.6096C24.9915 16.5834 24.665 16.5683 24.6097 16.2584C24.5634 15.9986 24.7827 15.7917 25.0301 15.7784C25.0973 15.7747 25.165 15.7778 25.2326 15.7781C25.165 15.7778 28.7216 15.8758 25.2326 15.7781Z" fill="white"/>
<path fill-rule="evenodd" clip-rule="evenodd" d="M30.5348 22.6516C30.5291 22.6952 30.526 22.7977 30.5005 22.8942C30.4079 23.2445 29.8768 23.2883 29.7545 22.9348C29.7183 22.8299 29.7129 22.7105 29.7127 22.5976C29.7114 21.8586 29.5508 21.1203 29.1781 20.4774C28.7951 19.8165 28.2098 19.261 27.5234 18.9249C27.1083 18.7216 26.6594 18.5953 26.2045 18.52C26.0056 18.4871 25.8047 18.4672 25.6049 18.4394C25.3628 18.4057 25.2335 18.2514 25.245 18.0128C25.2557 17.7892 25.4191 17.6284 25.6627 17.6422C26.4634 17.6877 27.2368 17.8607 27.9487 18.2377C29.3963 19.0043 30.2232 20.2143 30.4646 21.8301C30.4754 21.9033 30.493 21.9758 30.4986 22.0493C30.5122 22.2307 30.5208 22.4124 30.5348 22.6516C30.5208 22.4124 30.5291 22.6952 30.5348 22.6516Z" fill="white"/>
<path fill-rule="evenodd" clip-rule="evenodd" d="M28.3646 22.5671C28.0727 22.5724 27.9165 22.4108 27.8864 22.1432C27.8655 21.9566 27.8489 21.7675 27.8044 21.5859C27.7167 21.2284 27.5266 20.897 27.2258 20.6779C27.0839 20.5744 26.9229 20.499 26.7544 20.4504C26.5403 20.3886 26.3179 20.4056 26.1043 20.3532C25.8723 20.2964 25.7439 20.1085 25.7804 19.8908C25.8136 19.6928 26.0063 19.5382 26.2227 19.5538C27.5755 19.6515 28.5423 20.3508 28.6802 21.9433C28.69 22.0557 28.7014 22.1744 28.6765 22.2819C28.6338 22.4659 28.4975 22.5582 28.3646 22.5671C28.4975 22.5582 28.0727 22.5724 28.3646 22.5671Z" fill="white"/>
</svg>
