<svg width="50" height="50" viewBox="0 0 50 50" fill="none" xmlns="http://www.w3.org/2000/svg">
<path fill-rule="evenodd" clip-rule="evenodd" d="M24.8221 49.6442C38.531 49.6442 49.6442 38.531 49.6442 24.8221C49.6442 11.1132 38.531 0 24.8221 0C11.1132 0 0 11.1132 0 24.8221C0 38.531 11.1132 49.6442 24.8221 49.6442Z" fill="#4D76A1"/>
<path fill-rule="evenodd" clip-rule="evenodd" d="M23.8845 35.7088H25.8328C25.8328 35.7088 26.4213 35.6442 26.7217 35.3203C26.9982 35.023 26.9894 34.4646 26.9894 34.4646C26.9894 34.4646 26.9513 31.8504 28.1646 31.4654C29.3606 31.0862 30.8965 33.992 32.5244 35.1092C33.7553 35.9548 34.6907 35.7694 34.6907 35.7694L39.0434 35.7088C39.0434 35.7088 41.3204 35.5685 40.2407 33.7783C40.1522 33.6318 39.612 32.4539 37.0044 30.0336C34.2752 27.5004 34.6407 27.9101 37.9283 23.5283C39.9306 20.8597 40.731 19.2305 40.481 18.5327C40.2425 17.8681 38.7699 18.0438 38.7699 18.0438L33.869 18.0743C33.869 18.0743 33.5058 18.0247 33.2363 18.1858C32.973 18.3438 32.8036 18.7119 32.8036 18.7119C32.8036 18.7119 32.0279 20.7769 30.9934 22.5331C28.8111 26.2389 27.9385 26.4345 27.5819 26.2044C26.7522 25.6681 26.9593 24.05 26.9593 22.9004C26.9593 19.3092 27.504 17.8119 25.8987 17.4243C25.3659 17.2955 24.9739 17.2106 23.6115 17.1969C21.8629 17.1787 20.3828 17.2022 19.5447 17.6128C18.9872 17.8858 18.5571 18.4942 18.819 18.5292C19.1429 18.5725 19.8766 18.7269 20.2655 19.2566C20.7677 19.9398 20.75 21.4743 20.75 21.4743C20.75 21.4743 21.0385 25.7017 20.0761 26.2269C19.4155 26.5871 18.5093 25.8517 16.5637 22.4898C15.5668 20.7676 14.8142 18.8641 14.8142 18.8641C14.8142 18.8641 14.669 18.5084 14.4102 18.3181C14.096 18.0876 13.6571 18.0141 13.6571 18.0141L9.00002 18.0446C9.00002 18.0446 8.30091 18.0641 8.04427 18.3681C7.81595 18.6384 8.02613 19.1977 8.02613 19.1977C8.02613 19.1977 11.6721 27.7278 15.8005 32.0265C19.5859 35.9676 23.8845 35.7088 23.8845 35.7088Z" fill="white"/>
</svg>
