<svg width="100" height="100" viewBox="0 0 100 100" fill="none" xmlns="http://www.w3.org/2000/svg">
<g id="vk">
<path id="XMLID_11_" fill-rule="evenodd" clip-rule="evenodd" d="M49.6442 99.2885C77.062 99.2885 99.2885 77.062 99.2885 49.6442C99.2885 22.2265 77.062 0 49.6442 0C22.2265 0 0 22.2265 0 49.6442C0 77.062 22.2265 99.2885 49.6442 99.2885Z" fill="#4D76A1"/>
<path id="Path" fill-rule="evenodd" clip-rule="evenodd" d="M47.7691 71.4176H51.6655C51.6655 71.4176 52.8425 71.2884 53.4434 70.6406C53.9965 70.0459 53.9788 68.9291 53.9788 68.9291C53.9788 68.9291 53.9027 63.7008 56.3292 62.9309C58.7213 62.1725 61.793 67.984 65.0487 70.2185C67.5107 71.9096 69.3815 71.5388 69.3815 71.5388L78.0868 71.4176C78.0868 71.4176 82.6407 71.1371 80.4815 67.5565C80.3045 67.2636 79.2239 64.9079 74.0089 60.0672C68.5505 55.0008 69.2815 55.8203 75.8567 47.0565C79.8611 41.7194 81.462 38.461 80.962 37.0654C80.485 35.7362 77.5399 36.0875 77.5399 36.0875L67.7381 36.1486C67.7381 36.1486 67.0115 36.0495 66.4726 36.3716C65.9461 36.6875 65.6071 37.4238 65.6071 37.4238C65.6071 37.4238 64.0558 41.5539 61.9868 45.0663C57.6222 52.4778 55.877 52.8689 55.1638 52.4088C53.5045 51.3362 53.9186 48.0999 53.9186 45.8008C53.9186 38.6185 55.008 35.6238 51.7974 34.8486C50.7319 34.5911 49.9478 34.4211 47.223 34.3937C43.7257 34.3574 40.7655 34.4043 39.0894 35.2256C37.9744 35.7716 37.1142 36.9884 37.6381 37.0583C38.2859 37.145 39.7531 37.4539 40.531 38.5132C41.5354 39.8795 41.5 42.9486 41.5 42.9486C41.5 42.9486 42.077 51.4034 40.1523 52.4539C38.831 53.1742 37.0186 51.7034 33.1275 44.9795C31.1337 41.5353 29.6284 37.7282 29.6284 37.7282C29.6284 37.7282 29.3381 37.0167 28.8204 36.6362C28.1921 36.1751 27.3142 36.0282 27.3142 36.0282L18 36.0893C18 36.0893 16.6018 36.1282 16.0885 36.7362C15.6319 37.2769 16.0523 38.3955 16.0523 38.3955C16.0523 38.3955 23.3443 55.4557 31.6009 64.053C39.1717 71.9353 47.7691 71.4176 47.7691 71.4176Z" fill="white"/>
</g>
</svg>
