<svg width="100" height="100" viewBox="0 0 100 100" fill="none" xmlns="http://www.w3.org/2000/svg">
<g id="whatsapp">
<rect id="Rectangle" width="100" height="100" rx="25" fill="#1BD741"/>
<g id="Group">
<path id="Shape" fill-rule="evenodd" clip-rule="evenodd" d="M25.105 62.5177L20.8215 77.7311L36.5107 73.6925C41.0563 76.2431 46.1946 77.5863 51.4421 77.5863C68.283 77.5863 81.9838 63.8852 81.9838 47.0444C81.9838 30.2035 68.283 16.5024 51.4421 16.5024C34.6012 16.5024 20.9002 30.2035 20.9002 47.0444C20.9002 52.5139 22.3505 57.8381 25.105 62.5177ZM38.2477 68.7069L37.3128 68.1361L28.2485 70.4694L30.7152 61.7083L30.0856 60.7279C27.466 56.6486 26.0811 51.9169 26.0811 47.0444C26.0811 33.0603 37.458 21.6834 51.4421 21.6834C65.4262 21.6834 76.8029 33.0603 76.8029 47.0444C76.8029 61.0284 65.4262 72.4053 51.4421 72.4053C46.7735 72.4053 42.2109 71.1264 38.2477 68.7069Z" fill="white"/>
<path id="Path" fill-rule="evenodd" clip-rule="evenodd" d="M42.8625 32.8294L40.8807 32.7214C40.2583 32.6874 39.6477 32.8954 39.1772 33.3041C38.2164 34.1384 36.6802 35.7514 36.2083 37.8534C35.5047 40.9874 36.5921 44.8251 39.4065 48.6629C42.2209 52.5006 47.4657 58.6409 56.7401 61.2634C59.7287 62.1085 62.0797 61.5388 63.8936 60.3785C65.3303 59.4595 66.3206 57.9845 66.6775 56.317L66.9939 54.8391C67.0945 54.3694 66.8559 53.8927 66.4196 53.6916L59.7218 50.6044C59.287 50.404 58.7714 50.5307 58.479 50.9097L55.8496 54.3183C55.651 54.5758 55.3109 54.6779 55.0039 54.5701C53.2033 53.9372 47.1715 51.4111 43.8619 45.0358C43.7183 44.7593 43.754 44.4237 43.9576 44.1879L46.4706 41.2808C46.7273 40.984 46.7922 40.5666 46.6379 40.2059L43.7508 33.4513C43.5971 33.0917 43.2526 32.8507 42.8625 32.8294Z" fill="white"/>
</g>
</g>
</svg>
