<svg width="50" height="50" viewBox="0 0 50 50" fill="none" xmlns="http://www.w3.org/2000/svg">
<rect width="50" height="50" rx="25" fill="#1BD741"/>
<path fill-rule="evenodd" clip-rule="evenodd" d="M12.5525 31.2588L10.4108 38.8656L18.2554 36.8463C20.5281 38.1215 23.0973 38.7931 25.7211 38.7931C34.1415 38.7931 40.9919 31.9426 40.9919 23.5222C40.9919 15.1017 34.1415 8.25122 25.7211 8.25122C17.3006 8.25122 10.4501 15.1017 10.4501 23.5222C10.4501 26.2569 11.1752 28.9191 12.5525 31.2588ZM19.1238 34.3535L18.6564 34.068L14.1242 35.2347L15.3576 30.8541L15.0428 30.364C13.733 28.3243 13.0406 25.9585 13.0406 23.5222C13.0406 16.5301 18.729 10.8417 25.7211 10.8417C32.7131 10.8417 38.4015 16.5301 38.4015 23.5222C38.4015 30.5142 32.7131 36.2027 25.7211 36.2027C23.3868 36.2027 21.1054 35.5632 19.1238 34.3535Z" fill="white"/>
<path fill-rule="evenodd" clip-rule="evenodd" d="M21.4313 16.4147L20.4404 16.3607C20.1291 16.3437 19.8238 16.4477 19.5886 16.6521C19.1082 17.0692 18.3401 17.8757 18.1042 18.9267C17.7523 20.4937 18.296 22.4126 19.7032 24.3314C21.1104 26.2503 23.7328 29.3205 28.3701 30.6317C29.8644 31.0543 31.0399 30.7694 31.9468 30.1892C32.6651 29.7298 33.1603 28.9922 33.3387 28.1585L33.497 27.4195C33.5472 27.1847 33.428 26.9464 33.2098 26.8458L29.8609 25.3022C29.6435 25.202 29.3857 25.2653 29.2395 25.4548L27.9248 27.1592C27.8255 27.2879 27.6555 27.339 27.502 27.285C26.6016 26.9686 23.5858 25.7055 21.9309 22.5179C21.8592 22.3797 21.877 22.2119 21.9788 22.0939L23.2353 20.6404C23.3637 20.492 23.3961 20.2833 23.3189 20.1029L21.8754 16.7256C21.7985 16.5459 21.6263 16.4253 21.4313 16.4147Z" fill="white"/>
</svg>
