<svg width="40" height="34" viewBox="0 0 40 34" fill="none" xmlns="http://www.w3.org/2000/svg">
<path d="M40 2.59995V28.2C40 29.5254 38.9255 30.6 37.6 30.6H36.8V32.2C36.8 33.0836 36.0837 33.7999 35.2 33.7999H32C31.1163 33.7999 30.4 33.0836 30.4 32.2V30.6H9.6V32.2C9.6 33.0836 8.88366 33.7999 8 33.7999H4.8C3.91634 33.7999 3.2 33.0836 3.2 32.2V30.6H2.4C1.07452 30.6 0 29.5254 0 28.2V2.59995C0 1.27447 1.07452 0.199951 2.4 0.199951H37.6C38.9255 0.199951 40 1.27447 40 2.59995Z" fill="#1FDB84"/>
</svg>
