<svg width="34" height="34" viewBox="0 0 34 34" fill="none" xmlns="http://www.w3.org/2000/svg">
<path fill-rule="evenodd" clip-rule="evenodd" d="M33.6914 16.2858L28.1337 11.055C27.8489 10.7868 27.4318 10.7137 27.0726 10.8689C26.7134 11.0241 26.4808 11.3779 26.4808 11.7692V14.0577H19.9423V7.51925H22.2308C22.6221 7.51925 22.976 7.28669 23.1312 6.9275C23.2863 6.56831 23.2132 6.15121 22.945 5.86633L17.7142 0.30859C17.5289 0.111695 17.2704 0 17 0C16.7296 0 16.4711 0.111695 16.2858 0.30859L11.055 5.86633C10.7868 6.15121 10.7137 6.56831 10.8689 6.9275C11.0241 7.28669 11.3779 7.51925 11.7692 7.51925H14.0577V14.0577H7.51925V11.7692C7.51925 11.378 7.28669 11.0241 6.9275 10.8689C6.56824 10.7137 6.15121 10.7868 5.86633 11.055L0.30859 16.2858C0.111695 16.4711 0 16.7296 0 17C0 17.2704 0.111695 17.5289 0.30859 17.7142L5.86626 22.945C6.15114 23.2132 6.56818 23.2863 6.92743 23.1311C7.28662 22.9759 7.51918 22.6221 7.51918 22.2308V19.9423H14.0577V26.4808H11.7692C11.3779 26.4808 11.024 26.7133 10.8688 27.0725C10.7137 27.4317 10.7868 27.8488 11.055 28.1337L16.2857 33.6913C16.471 33.8883 16.7295 33.9999 16.9999 33.9999C17.2703 33.9999 17.5288 33.8882 17.7141 33.6913L22.9449 28.1337C23.2131 27.8488 23.2862 27.4317 23.131 27.0725C22.9758 26.7133 22.622 26.4808 22.2307 26.4808H19.9422V19.9423H26.4807V22.2308C26.4807 22.622 26.7132 22.9759 27.0724 23.1311C27.4317 23.2863 27.8488 23.2132 28.1336 22.945L33.6913 17.7142C33.8882 17.5289 33.9999 17.2704 33.9999 17C33.9999 16.7296 33.8883 16.4711 33.6914 16.2858Z" fill="#1FDB84"/>
</svg>
