<svg width="22" height="42" viewBox="0 0 22 42" fill="none" xmlns="http://www.w3.org/2000/svg">
<path fill-rule="evenodd" clip-rule="evenodd" d="M19.8 12.5264C21.0149 12.5264 22 13.5161 22 14.7369V37.579C22 38.7998 21.0149 39.7895 19.8 39.7895H2.2C0.985059 39.7895 0 38.7998 0 37.579V14.7369C0 13.5161 0.985059 12.5264 2.2 12.5264H19.8ZM5.13333 36.8422C5.53831 36.8422 5.86667 36.5122 5.86667 36.1053V16.2106C5.86667 15.8037 5.53831 15.4737 5.13333 15.4737C4.72835 15.4737 4.4 15.8037 4.4 16.2106V36.1053C4.4 36.5122 4.72835 36.8422 5.13333 36.8422ZM11.7333 37.579C11.7333 37.9859 11.405 38.3158 11 38.3158C10.595 38.3158 10.2667 37.9859 10.2667 37.579V14.7369C10.2667 14.33 10.595 14.0001 11 14.0001C11.405 14.0001 11.7333 14.33 11.7333 14.7369V37.579ZM16.8667 36.8422C17.2716 36.8422 17.6 36.5122 17.6 36.1053V16.2106C17.6 15.8037 17.2716 15.4737 16.8667 15.4737C16.4617 15.4737 16.1333 15.8037 16.1333 16.2106V36.1053C16.1333 36.5122 16.4617 36.8422 16.8667 36.8422Z" fill="#1FDB84"/>
<path fill-rule="evenodd" clip-rule="evenodd" d="M16.1333 40.8948C16.1333 40.6913 16.2983 40.5264 16.5018 40.5264H17.9649C18.1684 40.5264 18.3333 40.6913 18.3333 40.8948V41.6316C18.3333 41.8351 18.1684 42.0001 17.9649 42.0001H16.5018C16.2983 42.0001 16.1333 41.8351 16.1333 41.6316V40.8948Z" fill="#1FDB84"/>
<path fill-rule="evenodd" clip-rule="evenodd" d="M3.66667 40.8948C3.66667 40.6913 3.83162 40.5264 4.03509 40.5264H5.49825C5.70172 40.5264 5.86667 40.6913 5.86667 40.8948V41.6316C5.86667 41.8351 5.70172 42.0001 5.49825 42.0001H4.03509C3.83162 42.0001 3.66667 41.8351 3.66667 41.6316V40.8948Z" fill="#1FDB84"/>
<path fill-rule="evenodd" clip-rule="evenodd" d="M13.9319 4.05263C13.9319 3.84915 14.0968 3.6842 14.3003 3.6842H15.0301C15.2336 3.6842 15.3986 3.84915 15.3986 4.05263V10.6842C15.3986 10.8877 15.2336 11.0526 15.0301 11.0526H14.3003C14.0968 11.0526 13.9319 10.8877 13.9319 10.6842V4.05263Z" fill="#1FDB84"/>
<path fill-rule="evenodd" clip-rule="evenodd" d="M16.8667 0.368421C16.8667 0.164948 16.7017 0 16.4982 0H5.50175C5.29828 0 5.13333 0.164948 5.13333 0.368421V1.84211C5.13333 2.04558 5.29828 2.21053 5.50175 2.21053H16.4982C16.7017 2.21053 16.8667 2.04558 16.8667 1.84211V0.368421Z" fill="#1FDB84"/>
<path fill-rule="evenodd" clip-rule="evenodd" d="M6.59857 4.05263C6.59857 3.84915 6.76352 3.6842 6.96699 3.6842H7.69682C7.90029 3.6842 8.06524 3.84915 8.06524 4.05263V10.6842C8.06524 10.8877 7.90029 11.0526 7.69682 11.0526H6.96699C6.76352 11.0526 6.59857 10.8877 6.59857 10.6842V4.05263Z" fill="#1FDB84"/>
</svg>
