<svg width="34" height="38" viewBox="0 0 34 38" fill="none" xmlns="http://www.w3.org/2000/svg">
<path fill-rule="evenodd" clip-rule="evenodd" d="M27.7452 24.5383C26.2356 26.6037 23.7902 27.9489 21.0351 27.9489H17.1692C15.8337 27.9489 14.6965 27.1043 14.2658 25.9222C13.7343 25.7642 13.213 25.5592 12.7043 25.3074C11.6271 24.7743 10.649 24.0519 9.78794 23.1571C4.20281 24.3794 0.0227203 29.3369 0.0227203 35.2678V36.043C0.0227203 37.1086 0.889969 37.9726 1.95973 37.9726H32.0127C33.0824 37.9726 33.9497 37.1086 33.9497 36.043V35.2678C33.9496 30.6861 31.4549 26.6852 27.7452 24.5383Z" fill="#1FDB84"/>
<path fill-rule="evenodd" clip-rule="evenodd" d="M9.66172 18.042C9.28631 18.7203 8.5617 19.1799 7.72919 19.1799C6.51598 19.1799 5.52359 18.1996 5.52359 16.9827V11.4834C5.52359 10.75 5.88474 10.1008 6.43927 9.70173C6.86933 4.28045 11.4352 0 16.9862 0C22.537 0 27.103 4.28045 27.533 9.70181C28.0876 10.1009 28.4487 10.75 28.4487 11.4835V13.0078V16.9829C28.4487 17.7016 28.1022 18.3397 27.5665 18.7406V19.6849C27.5665 23.2725 24.6365 26.1913 21.0351 26.1913H17.1692C16.4383 26.1913 15.8458 25.6011 15.8458 24.873C15.8458 24.145 16.4383 23.5547 17.1692 23.5547H21.0351C23.1771 23.5547 24.9198 21.8187 24.9198 19.6849V18.7406C24.67 18.5537 24.4615 18.3151 24.3099 18.0408C24.0402 18.7722 23.7359 19.4431 23.3432 20.0765C23.0979 20.4723 22.6227 21.219 22.0943 21.5133C21.7797 21.6885 21.4207 21.7969 21.0351 21.7969H17.1693C16.0674 21.7969 15.1011 22.3722 14.5546 23.2372C12.295 22.3913 10.5814 20.4555 9.7007 18.1462L9.69174 18.1222C9.68162 18.0955 9.67159 18.0688 9.66172 18.042ZM24.8808 9.75625C24.4846 5.76485 21.0953 2.63662 16.9862 2.63662C12.877 2.63662 9.48774 5.76485 9.09135 9.75633C9.35141 9.96013 9.56445 10.2206 9.71123 10.5195L9.71612 10.5064C10.9348 7.35168 13.6776 5.01451 16.9861 5.01451C20.2247 5.01451 23.0122 7.27403 24.2609 10.5194C24.4077 10.2205 24.6207 9.96005 24.8808 9.75625Z" fill="#1FDB84"/>
</svg>
