<svg width="41" height="33" viewBox="0 0 41 33" fill="none" xmlns="http://www.w3.org/2000/svg">
<path fill-rule="evenodd" clip-rule="evenodd" d="M35.469 21.2791L40.2395 7.16128C40.4789 6.48259 40.2977 6.07459 40.1046 5.8052C39.61 5.11605 38.5929 5.10951 38.3958 5.10951L11.435 5.10428L10.7155 1.72913C10.5211 0.932743 9.94713 0.172974 8.78987 0.172974H1.21281C0.427194 0.172974 0 0.536512 0 1.26228V3.21074C0 3.91297 0.425871 4.09605 1.24058 4.09605H7.6379L12.5341 24.649C11.7564 25.4637 11.3332 26.6511 11.3332 27.7587C11.3332 30.1963 13.2959 32.4429 15.8035 32.4429C18.1709 32.4429 19.9458 30.2499 20.2342 28.9422H29.77C30.0583 30.2499 31.4959 32.4952 34.1993 32.4952C36.6633 32.4952 38.667 30.3846 38.667 27.951C38.667 25.5304 37.1791 23.3845 34.2244 23.3845C32.9957 23.3845 31.5383 24.0384 30.8611 25.0191H19.1444C18.2939 23.7114 17.1327 23.306 15.9583 23.2603L15.7956 22.4037H33.6226C34.9664 22.4037 35.2309 21.9199 35.469 21.2791ZM34.2324 26.2366C35.1595 26.2366 35.912 26.9807 35.912 27.8974C35.912 28.8141 35.1595 29.5581 34.2324 29.5581C33.3052 29.5581 32.5514 28.8154 32.5514 27.8974C32.5527 26.9807 33.3052 26.2366 34.2324 26.2366ZM15.7678 29.5791C16.7029 29.5791 17.4647 28.8245 17.4647 27.8974C17.4647 26.9702 16.7029 26.2157 15.7678 26.2157C14.8301 26.2157 14.067 26.9702 14.067 27.8974C14.067 28.8245 14.8301 29.5764 15.7678 29.5791Z" fill="#1FDB84"/>
</svg>
