<svg width="27" height="38" viewBox="0 0 27 38" fill="none" xmlns="http://www.w3.org/2000/svg">
<path fill-rule="evenodd" clip-rule="evenodd" d="M6.75 19.361C6.75 5.60132 14.0629 0 14.0629 0C14.0629 0 21.375 5.44222 21.375 19.361C21.375 28.1858 18.6722 33.7047 15.1518 34.6471V25.7642C15.1518 25.1708 14.6647 24.6892 14.0629 24.6892C13.461 24.6892 12.9739 25.1708 12.9739 25.7642V34.6471C9.45357 33.7047 6.75 28.1858 6.75 19.361ZM10.409 10.3054C11.495 10.5082 12.7212 10.6193 13.9765 10.6193C15.305 10.6193 16.598 10.4975 17.7247 10.2724C16.6684 6.88555 15.1765 4.62668 14.0759 3.3102C12.9724 4.64316 11.4725 6.9221 10.409 10.3054Z" fill="#1FDB84"/>
<path fill-rule="evenodd" clip-rule="evenodd" d="M3.72612 25.7059C1.66799 25.7059 0 27.2228 0 29.094V38.0001L6.75 32.6818C5.74866 30.8624 5.00056 28.4999 4.55909 25.7059H3.72612Z" fill="#1FDB84"/>
<path fill-rule="evenodd" clip-rule="evenodd" d="M23.2732 25.7059H22.4409C21.9988 28.4999 21.2513 30.8624 20.25 32.6818L27 38.0001V29.094C27 27.2228 25.332 25.7059 23.2732 25.7059Z" fill="#1FDB84"/>
</svg>
