<svg width="49" height="13" viewBox="0 0 49 13" fill="none" xmlns="http://www.w3.org/2000/svg">
<path d="M0.354236 0.559999H5.76224C6.46624 0.559999 7.06357 0.639999 7.55424 0.799999C8.05557 0.949333 8.4609 1.15733 8.77024 1.424C9.07957 1.69067 9.30357 2.00533 9.44224 2.368C9.59157 2.73067 9.66624 3.12533 9.66624 3.552V3.616C9.66624 4.288 9.49557 4.832 9.15424 5.248C8.8129 5.65333 8.32224 5.93067 7.68224 6.08C8.35424 6.19733 8.90357 6.47467 9.33024 6.912C9.7569 7.33867 9.97024 7.952 9.97024 8.752V8.816C9.97024 9.82933 9.6289 10.6133 8.94624 11.168C8.27424 11.7227 7.20224 12 5.73024 12H0.354236V0.559999ZM5.04224 9.616C5.51157 9.616 5.8529 9.51467 6.06624 9.312C6.29024 9.09867 6.40224 8.8 6.40224 8.416V8.352C6.40224 7.97867 6.29024 7.69067 6.06624 7.488C5.84224 7.28533 5.47424 7.184 4.96224 7.184H3.89024V9.616H5.04224ZM4.99424 5.024C5.44224 5.024 5.76224 4.944 5.95424 4.784C6.14624 4.624 6.24224 4.368 6.24224 4.016V3.952C6.24224 3.61067 6.1409 3.35467 5.93824 3.184C5.74624 3.01333 5.42624 2.928 4.97824 2.928H3.89024V5.024H4.99424ZM17.4117 12.208C16.377 12.208 15.4757 12.0693 14.7077 11.792C13.9503 11.504 13.321 11.104 12.8197 10.592C12.3183 10.08 11.945 9.46667 11.6997 8.752C11.4543 8.02667 11.3317 7.22667 11.3317 6.352V6.224C11.3317 5.33867 11.481 4.53867 11.7797 3.824C12.0783 3.09867 12.489 2.48533 13.0117 1.984C13.545 1.472 14.1743 1.07733 14.8997 0.799999C15.625 0.522666 16.409 0.384 17.2517 0.384C18.0197 0.384 18.7237 0.474666 19.3637 0.655999C20.0037 0.837333 20.5583 1.11467 21.0277 1.488C21.497 1.85067 21.8757 2.31467 22.1637 2.88C22.4517 3.44533 22.6277 4.11733 22.6917 4.896H18.9477C18.8943 4.36267 18.729 3.95733 18.4517 3.68C18.1743 3.392 17.7797 3.248 17.2677 3.248C16.6063 3.248 16.089 3.49867 15.7157 4C15.3423 4.50133 15.1557 5.23733 15.1557 6.208V6.336C15.1557 7.296 15.3423 8.032 15.7157 8.544C16.089 9.04533 16.6277 9.296 17.3317 9.296C17.8437 9.296 18.2703 9.16267 18.6117 8.896C18.953 8.61867 19.1557 8.192 19.2197 7.616H22.8357C22.7823 8.37333 22.6117 9.04 22.3237 9.616C22.0463 10.1813 21.6677 10.656 21.1877 11.04C20.7077 11.424 20.1477 11.7173 19.5077 11.92C18.8677 12.112 18.169 12.208 17.4117 12.208ZM24.5869 0.559999H32.7149V3.344H28.2029V4.96H31.7869V7.504H28.2029V9.216H32.9709V12H24.5869V0.559999ZM34.9532 0.559999H39.6572L41.5932 6.112L43.5612 0.559999H48.1692V12H44.5692V5.248L41.9612 12H40.7452L38.1852 5.248V12H34.9532V0.559999Z" fill="#1FDB84"/>
</svg>
