<svg width="321" height="62" fill="none" xmlns="http://www.w3.org/2000/svg"><path fill-rule="evenodd" clip-rule="evenodd" d="M9.999 5.263C.609 8.22-4.897 11.789 6.032 49.672c2.78 9.64 7.24 11.194 24.919 11.76 28.368.91 32.481 1.445 38.302-15.168C83.523 5.533 77.392 1.12 55.978.142 54.467.072 52.185 0 49.346 0 39.86 0 24.13.81 10 5.263z" fill="url(#paint0_linear)" filter="url(#filter0_i)"/><g filter="url(#filter1_d)" fill-rule="evenodd" clip-rule="evenodd"><path d="M23.165 36.516V26.202c0-.305.11-.564.328-.775.22-.21.456-.315.712-.315h5.2c.292 0 .538.115.74.344.2.23.3.48.3.746v6.928c0 2.449.73 7.423 2.19 8.953 1.459 1.531 3.375 2.296 5.748 2.296 2.371 0 4.297-.765 5.775-2.296 1.478-1.53 2.216-6.485 2.216-8.896v-6.985c0-.305.1-.564.302-.775.2-.21.446-.315.739-.315h5.2c.292 0 .538.115.739.344.2.23.301.48.301.746v10.314c0 2.143-.393 4.161-1.177 6.055-.785 1.894-1.852 3.52-3.202 4.878-1.35 1.359-2.975 2.43-4.872 3.214a15.62 15.62 0 0 1-6.022 1.177c-2.846 0-5.428-.67-7.745-2.009a14.613 14.613 0 0 1-5.474-5.51c-1.333-2.333-1.998-4.935-1.998-7.805z" fill="url(#paint1_linear)"/><path d="M21.27 16.159c0-3.295 2.547-5.966 5.69-5.966 3.141 0 5.689 2.67 5.689 5.966 0 3.294-2.548 5.965-5.69 5.965-3.142 0-5.69-2.67-5.69-5.965z" fill="url(#paint2_linear)"/><path d="M45.365 19.143c-.293 0-.539-.095-.74-.287-.2-.191-.3-.44-.3-.746v-3.846c0-.305.1-.564.3-.774.201-.21.447-.316.74-.316h9.3c.291 0 .538.106.739.316.2.21.3.469.3.774v3.846c0 .306-.1.555-.3.746a1.029 1.029 0 0 1-.74.287h-9.3z" fill="url(#paint3_linear)"/></g><mask id="a" maskUnits="userSpaceOnUse" x="94" y="13" width="34" height="43"><path fill-rule="evenodd" clip-rule="evenodd" d="M94.218 13.61h33.25v41.817h-33.25V13.61z" fill="#fff"/></mask><g mask="url(#a)"><path fill-rule="evenodd" clip-rule="evenodd" d="M127.468 37.692c0 2.738-.426 5.207-1.276 7.405-.852 2.2-2.019 4.067-3.504 5.601a14.96 14.96 0 0 1-5.254 3.516c-2.019.809-4.216 1.213-6.591 1.213s-4.582-.404-6.621-1.213c-2.039-.809-3.8-1.98-5.284-3.516-1.484-1.534-2.642-3.401-3.474-5.6-.83-2.199-1.246-4.668-1.246-7.406V13.61h8.015v24.705c0 1.535.217 2.884.653 4.044.436 1.162 1.04 2.138 1.812 2.925a7.405 7.405 0 0 0 2.731 1.774c1.048.395 2.186.591 3.414.591 1.226 0 2.365-.197 3.414-.591a7.43 7.43 0 0 0 2.731-1.774c.772-.787 1.375-1.763 1.811-2.925.435-1.16.653-2.509.653-4.044V13.61h8.016v24.082z" fill="#141414"/></g><mask id="b" maskUnits="userSpaceOnUse" x="94" y="8" width="226" height="48"><path fill-rule="evenodd" clip-rule="evenodd" d="M94.218 55.428h225.709V8.01H94.217v47.418z" fill="#fff"/></mask><g mask="url(#b)" fill-rule="evenodd" clip-rule="evenodd" fill="#141414"><path d="M134.296 38.252h14.963v-7.031h-14.963v7.031zM206.477 30.847c-2.256 0-4.088.8-5.492 2.396-1.406 1.598-2.108 3.62-2.108 6.067 0 2.449.702 4.45 2.108 6.005 1.404 1.556 3.236 2.334 5.492 2.334a7.268 7.268 0 0 0 2.998-.622 7.077 7.077 0 0 0 2.405-1.743 8.522 8.522 0 0 0 1.603-2.645c.396-1.016.594-2.125.594-3.329 0-1.202-.198-2.323-.594-3.36-.396-1.037-.93-1.929-1.603-2.676a7.46 7.46 0 0 0-2.405-1.773 6.977 6.977 0 0 0-2.998-.654zm0-7.654c2.177 0 4.225.416 6.145 1.245 1.92.83 3.593 1.96 5.018 3.391 1.425 1.432 2.553 3.122 3.384 5.072.831 1.95 1.247 4.066 1.247 6.347 0 2.282-.416 4.409-1.247 6.379-.831 1.97-1.959 3.671-3.384 5.102a15.9 15.9 0 0 1-5.018 3.392c-1.92.829-3.968 1.244-6.145 1.244-2.177 0-4.226-.415-6.146-1.245a15.896 15.896 0 0 1-5.017-3.391c-1.425-1.431-2.544-3.132-3.355-5.102-.811-1.97-1.217-4.097-1.217-6.379 0-2.281.406-4.396 1.217-6.347.811-1.95 1.93-3.64 3.355-5.072a16.014 16.014 0 0 1 4.988-3.391c1.9-.83 3.958-1.245 6.175-1.245zM243.553 30.785c-.95 0-1.87.166-2.761.498a6.756 6.756 0 0 0-2.405 1.556c-.712.706-1.276 1.597-1.692 2.675-.415 1.08-.623 2.345-.623 3.796 0 1.494.217 2.77.653 3.827.435 1.058.999 1.93 1.692 2.614a6.637 6.637 0 0 0 2.375 1.524 7.83 7.83 0 0 0 2.761.498 7.24 7.24 0 0 0 2.91-.59 7.098 7.098 0 0 0 2.404-1.712c.693-.747 1.237-1.638 1.633-2.676.395-1.036.594-2.219.594-3.547 0-1.285-.199-2.458-.594-3.516-.396-1.058-.94-1.95-1.633-2.675a7.259 7.259 0 0 0-5.314-2.271zm-7.362-3.92c2.097-2.448 5.026-3.672 8.787-3.672 2.058 0 3.958.405 5.7 1.214a13.625 13.625 0 0 1 4.513 3.36c1.266 1.431 2.256 3.133 2.969 5.103.712 1.97 1.069 4.117 1.069 6.44 0 2.324-.357 4.47-1.069 6.44-.713 1.972-1.692 3.672-2.939 5.103a13.241 13.241 0 0 1-4.513 3.36c-1.762.81-3.672 1.214-5.73 1.214-2.019 0-3.84-.384-5.462-1.15a10.058 10.058 0 0 1-3.979-3.33v3.733h-7.362V8.01h8.016v18.855zM279.1 30.847c-2.257 0-4.088.8-5.493 2.396-1.405 1.598-2.107 3.62-2.107 6.067 0 2.449.702 4.45 2.107 6.005 1.405 1.556 3.236 2.334 5.493 2.334a7.268 7.268 0 0 0 2.998-.622 7.086 7.086 0 0 0 2.405-1.743 8.522 8.522 0 0 0 1.603-2.645c.395-1.016.594-2.125.594-3.329 0-1.202-.199-2.323-.594-3.36-.396-1.037-.93-1.929-1.603-2.676a7.472 7.472 0 0 0-2.405-1.773 6.977 6.977 0 0 0-2.998-.654zm0-7.654c2.176 0 4.225.416 6.145 1.245 1.92.83 3.593 1.96 5.018 3.391 1.424 1.432 2.553 3.122 3.384 5.072.831 1.95 1.247 4.066 1.247 6.347 0 2.282-.416 4.409-1.247 6.379-.831 1.97-1.96 3.671-3.384 5.102a15.9 15.9 0 0 1-5.018 3.392c-1.92.829-3.969 1.244-6.145 1.244-2.178 0-4.226-.415-6.146-1.245a15.896 15.896 0 0 1-5.017-3.391c-1.425-1.431-2.544-3.132-3.355-5.102-.811-1.97-1.217-4.097-1.217-6.379 0-2.281.406-4.396 1.217-6.347.811-1.95 1.93-3.64 3.355-5.072a16.014 16.014 0 0 1 4.988-3.391c1.9-.83 3.957-1.245 6.175-1.245zM319.036 30.972h-8.372v12.134c0 1.785.445 3.03 1.336 3.734.891.706 2.265 1.058 4.127 1.058.475 0 1.028-.02 1.662-.062a53.867 53.867 0 0 0 2.138-.187v7.032c-.832.207-1.703.383-2.613.529-.911.145-1.88.218-2.909.218-3.643 0-6.512-.934-8.61-2.8-2.098-1.867-3.147-4.792-3.147-8.775v-12.88h-4.631v-7.095h4.631V16.1h8.016v7.778h8.372v7.094zM176.385 26.75c0 3.08-2.213 5.907-5.12 5.907h-7.58V20.844h7.693c2.27 0 5.007 2.869 5.007 5.907zm3.289 27.498h8.944l-10.913-15.71c4.108-2.171 6.927-6.635 6.927-11.787 0-7.286-5.638-13.194-12.59-13.194h-16.274v40.691h7.917V39.945h6.054l9.935 14.303z"/></g><defs><filter id="filter0_i" x="0" y="0" width="76.974" height="63.8" filterUnits="userSpaceOnUse" color-interpolation-filters="sRGB"><feFlood flood-opacity="0" result="BackgroundImageFix"/><feBlend in="SourceGraphic" in2="BackgroundImageFix" result="shape"/><feColorMatrix in="SourceAlpha" values="0 0 0 0 0 0 0 0 0 0 0 0 0 0 0 0 0 0 127 0" result="hardAlpha"/><feOffset dy="2"/><feGaussianBlur stdDeviation="1"/><feComposite in2="hardAlpha" operator="arithmetic" k2="-1" k3="1"/><feColorMatrix values="0 0 0 0 0.172549 0 0 0 0 0.317647 0 0 0 0 0.74902 0 0 0 0.7 0"/><feBlend in2="shape" result="effect1_innerShadow"/></filter><filter id="filter1_d" x="19.269" y="10.193" width="38.435" height="45.647" filterUnits="userSpaceOnUse" color-interpolation-filters="sRGB"><feFlood flood-opacity="0" result="BackgroundImageFix"/><feColorMatrix in="SourceAlpha" values="0 0 0 0 0 0 0 0 0 0 0 0 0 0 0 0 0 0 127 0"/><feOffset dy="2"/><feGaussianBlur stdDeviation="1"/><feColorMatrix values="0 0 0 0 0.172549 0 0 0 0 0.317647 0 0 0 0 0.74902 0 0 0 0.8 0"/><feBlend in2="BackgroundImageFix" result="effect1_dropShadow"/><feBlend in="SourceGraphic" in2="effect1_dropShadow" result="shape"/></filter><linearGradient id="paint0_linear" x1="103.994" y1="35.503" x2="54.358" y2="-37.141" gradientUnits="userSpaceOnUse"><stop stop-color="#2B53D9"/><stop offset="1" stop-color="#53A0FD"/></linearGradient><linearGradient id="paint1_linear" x1="14.439" y1="9.814" x2="14.439" y2="51.84" gradientUnits="userSpaceOnUse"><stop stop-color="#fff"/><stop offset="1" stop-color="#F0F0F0"/></linearGradient><linearGradient id="paint2_linear" x1="18.012" y1="3.364" x2="18.012" y2="22.124" gradientUnits="userSpaceOnUse"><stop stop-color="#fff"/><stop offset="1" stop-color="#F0F0F0"/></linearGradient><linearGradient id="paint3_linear" x1="41.068" y1="9.758" x2="41.068" y2="19.143" gradientUnits="userSpaceOnUse"><stop stop-color="#fff"/><stop offset="1" stop-color="#F0F0F0"/></linearGradient></defs></svg>