<svg width="34" height="38" fill="none" xmlns="http://www.w3.org/2000/svg"><path fill-rule="evenodd" clip-rule="evenodd" d="M27.745 24.538a8.3 8.3 0 0 1-6.71 3.41H17.17a3.088 3.088 0 0 1-2.903-2.026 9.834 9.834 0 0 1-1.562-.615 10.513 10.513 0 0 1-2.916-2.15C4.203 24.38.023 29.337.023 35.267v.776c0 1.066.867 1.93 1.937 1.93h30.053c1.07 0 1.937-.864 1.937-1.93v-.775c0-4.582-2.495-8.583-6.205-10.73z" fill="#1FDB84"/><path fill-rule="evenodd" clip-rule="evenodd" d="M9.662 18.042a2.206 2.206 0 0 1-1.933 1.138 2.202 2.202 0 0 1-2.205-2.197v-5.5c0-.733.36-1.382.915-1.781C6.87 4.28 11.435 0 16.986 0s10.117 4.28 10.547 9.702a2.19 2.19 0 0 1 .916 1.781v5.5c0 .719-.347 1.357-.883 1.758v.944c0 3.588-2.93 6.506-6.53 6.506h-3.867a1.32 1.32 0 0 1-1.323-1.318 1.32 1.32 0 0 1 1.323-1.318h3.866c2.142 0 3.885-1.736 3.885-3.87v-.944a2.21 2.21 0 0 1-.61-.7c-.27.731-.574 1.402-.967 2.035-.245.396-.72 1.143-1.249 1.437a2.171 2.171 0 0 1-1.059.284H17.17a3.088 3.088 0 0 0-2.614 1.44c-2.26-.846-3.974-2.781-4.854-5.09l-.01-.025a9.08 9.08 0 0 1-.03-.08zM24.88 9.756c-.396-3.991-3.786-7.12-7.895-7.12S9.487 5.765 9.09 9.756c.26.204.473.465.62.764l.005-.014c1.219-3.154 3.962-5.491 7.27-5.491 3.239 0 6.026 2.259 7.275 5.504a2.21 2.21 0 0 1 .62-.763z" fill="#1FDB84"/></svg>