<svg width="22" height="42" fill="none" xmlns="http://www.w3.org/2000/svg"><path fill-rule="evenodd" clip-rule="evenodd" d="M19.8 12.526c1.215 0 2.2.99 2.2 2.21V37.58c0 1.22-.985 2.21-2.2 2.21H2.2c-1.215 0-2.2-.99-2.2-2.21V14.737c0-1.22.985-2.21 2.2-2.21h17.6zM5.133 36.842c.405 0 .734-.33.734-.737V16.211a.735.735 0 0 0-.734-.737.735.735 0 0 0-.733.737v19.894c0 .407.328.737.733.737zm6.6.737a.735.735 0 0 1-.733.737.735.735 0 0 1-.733-.737V14.737c0-.407.328-.737.733-.737.405 0 .733.33.733.737v22.842zm5.134-.737c.405 0 .733-.33.733-.737V16.211a.735.735 0 0 0-.733-.737.735.735 0 0 0-.734.737v19.894c0 .407.329.737.734.737zm-.734 4.053c0-.204.165-.369.369-.369h1.463c.203 0 .368.165.368.369v.737a.368.368 0 0 1-.368.368h-1.463a.369.369 0 0 1-.369-.368v-.737zm-12.466 0c0-.204.165-.369.368-.369h1.463c.204 0 .369.165.369.369v.737a.368.368 0 0 1-.369.368H4.035a.368.368 0 0 1-.368-.368v-.737zM13.932 4.053c0-.204.165-.369.368-.369h.73c.204 0 .369.165.369.369v6.631a.368.368 0 0 1-.369.369h-.73a.368.368 0 0 1-.368-.369V4.053zM16.867.368A.368.368 0 0 0 16.498 0H5.502a.368.368 0 0 0-.369.368v1.474c0 .204.165.369.369.369h10.996a.368.368 0 0 0 .369-.369V.368zM6.599 4.053c0-.204.165-.369.368-.369h.73c.203 0 .368.165.368.369v6.631a.368.368 0 0 1-.368.369h-.73a.368.368 0 0 1-.368-.369V4.053z" fill="#1FDB84"/></svg>