<svg width="39" height="26" fill="none" xmlns="http://www.w3.org/2000/svg"><path fill-rule="evenodd" clip-rule="evenodd" d="M.6.8a.8.8 0 0 1 .8-.8h10.4l2.103 2.103A34.306 34.306 0 0 1 19.8 1.6c7.986 0 14.83 2.642 17.724 6.4H2.076A12.754 12.754 0 0 1 5.94 4.809L3.8 1.6H1.4A.8.8 0 0 1 .6.8zm37.866 13.6A5.971 5.971 0 0 0 39 12a5.971 5.971 0 0 0-.534-2.4H1.134a5.657 5.657 0 0 0 0 4.8h37.332zm-18.666 8c7.986 0 14.83-2.642 17.724-6.4H2.076a12.755 12.755 0 0 0 3.863 3.191L3.8 22.4H1.4a.8.8 0 0 0 0 1.6h10.4l2.103-2.103a34.38 34.38 0 0 0 5.897.503zM7.377 19.92L5.723 22.4h5.414l.895-.895a25.21 25.21 0 0 1-4.655-1.586zM20.6 24H27a.8.8 0 0 1 0 1.6h-6.4a.8.8 0 1 1 0-1.6zM7.377 4.08L5.723 1.6h5.414l.895.894c-1.6.376-3.159.908-4.655 1.587z" fill="#1FDB84"/></svg>