<svg width="29" height="38" fill="none" xmlns="http://www.w3.org/2000/svg"><path fill-rule="evenodd" clip-rule="evenodd" d="M13.052 18.825c0-.664-5.772-3.53-5.772-6.97C7.28 9.253 8.718 7 10.838 5.76c.675 1.432 2.054 2.896 3.953 3.976 2.49 1.413 5.129 1.762 6.842 1.087.052.34.104.679.104 1.033 0 3.438-6.1 6.305-5.77 6.969 4.626-.696 8.179-4.593 8.179-9.34C24.146 4.247 19.831 0 14.508 0c-5.32 0-9.637 4.247-9.637 9.485 0 4.747 3.557 8.644 8.18 9.34zm8.685 2.515h-1.205c0 3.275-2.697 5.928-6.024 5.928s-6.023-2.653-6.023-5.928H7.28c-3.99 0-7.228 3.184-7.228 7.114v7.113c0 1.311 1.077 2.371 2.41 2.371h24.094c1.331 0 2.41-1.06 2.41-2.37v-7.114c0-3.93-3.234-7.114-7.229-7.114z" fill="#1FDB84"/></svg>