<svg width="41" height="33" fill="none" xmlns="http://www.w3.org/2000/svg"><path fill-rule="evenodd" clip-rule="evenodd" d="M35.469 21.28l4.77-14.119c.24-.678.059-1.086-.134-1.356-.495-.689-1.512-.695-1.71-.695l-26.96-.006-.72-3.375C10.521.933 9.947.173 8.79.173H1.213C.427.173 0 .537 0 1.263V3.21c0 .702.426.885 1.24.885h6.398l4.896 20.553c-.778.815-1.2 2.002-1.2 3.11 0 2.437 1.962 4.684 4.47 4.684 2.367 0 4.142-2.193 4.43-3.5h9.536c.288 1.307 1.726 3.552 4.43 3.552 2.463 0 4.467-2.11 4.467-4.544 0-2.42-1.488-4.567-4.443-4.567-1.228 0-2.686.654-3.363 1.635H19.144c-.85-1.308-2.011-1.713-3.186-1.759l-.162-.856h17.827c1.343 0 1.608-.484 1.846-1.125zm-1.237 4.957c.928 0 1.68.744 1.68 1.66a1.67 1.67 0 0 1-1.68 1.661 1.671 1.671 0 0 1-1.68-1.66 1.673 1.673 0 0 1 1.68-1.661zm-18.464 3.342c.935 0 1.697-.755 1.697-1.682 0-.927-.762-1.681-1.697-1.681-.938 0-1.701.754-1.701 1.681 0 .928.763 1.68 1.7 1.682z" fill="#1FDB84"/></svg>