<svg width="100" height="100" fill="none" xmlns="http://www.w3.org/2000/svg"><path d="M49.883 0c27.552 0 49.884 22.335 49.884 49.884 0 27.55-22.332 49.883-49.884 49.883C22.332 99.767 0 77.435 0 49.884 0 22.335 22.332 0 49.883 0z" fill="url(#a)"/><path fill-rule="evenodd" clip-rule="evenodd" d="M38.422 21.429h23.056c9.37 0 16.993 7.623 16.993 16.993v23.056c0 9.37-7.623 16.994-16.993 16.994H38.422c-9.37 0-16.993-7.624-16.993-16.994V38.422c0-9.37 7.623-16.993 16.993-16.993zm23.056 51.304c6.216 0 11.255-5.039 11.255-11.255V38.422c0-6.216-5.04-11.255-11.255-11.255H38.422c-6.216 0-11.255 5.04-11.255 11.255v23.056c0 6.216 5.039 11.255 11.255 11.255h23.056z" fill="#fff"/><path fill-rule="evenodd" clip-rule="evenodd" d="M35.197 49.95c0-8.135 6.618-14.753 14.753-14.753s14.753 6.618 14.753 14.753-6.618 14.753-14.753 14.753-14.753-6.618-14.753-14.753zm5.738 0a9.015 9.015 0 1 0 18.03 0 9.015 9.015 0 1 0-18.03 0zm23.797-11.107a3.535 3.535 0 1 0 0-7.07 3.535 3.535 0 0 0 0 7.07z" fill="#fff"/><defs><linearGradient id="a" x1="99.234" y1="99.476" x2="99.234" y2=".775" gradientUnits="userSpaceOnUse"><stop stop-color="#E09B3D"/><stop offset=".3" stop-color="#C74C4D"/><stop offset=".6" stop-color="#C21975"/><stop offset="1" stop-color="#7024C4"/></linearGradient></defs></svg>