<svg width="100" height="100" fill="none" xmlns="http://www.w3.org/2000/svg"><g fill-rule="evenodd" clip-rule="evenodd"><path d="M50 100c27.614 0 50-22.386 50-50S77.614 0 50 0 0 22.386 0 50s22.386 50 50 50z" fill="#F5F5F5"/><path d="M50.714 18.571c-17.75 0-32.142 13.323-32.142 29.76 0 9.366 4.672 17.72 11.977 23.176v11.35l10.944-6.007a34.567 34.567 0 0 0 9.221 1.246c17.751 0 32.143-13.323 32.143-29.76 0-16.441-14.392-29.765-32.143-29.765z" fill="#1E88E5"/><path d="M53.908 58.65l-8.184-8.731-15.97 8.73L47.318 40l8.386 8.73L71.478 40l-17.57 18.65z" fill="#FAFAFA"/></g></svg>