<svg width="101" height="101" viewBox="0 0 101 101" fill="none" xmlns="http://www.w3.org/2000/svg"><path d="M50.89 0L101 50.096V101L0 0h50.89z" fill="#FF4958"/><path d="M42.141 25.856c2.301 2.382 4.987 2.39 6.683.753 2.007-1.938 1.453-3.73-.551-6.324-.958-1.302-1-1.812-.482-2.312.466-.45 1.14-.4 1.828.312.7.725.726 1.425.153 2.154l2.376 2.46c1.792-2.056 1.512-4.213-.639-6.44-2.138-2.214-4.68-2.411-6.35-.798-1.865 1.8-1.792 3.431.423 6.347.907 1.276 1.09 1.776.52 2.326-.544.525-1.332.46-2.07-.304-1.063-1.1-.807-1.923-.209-2.626l-2.438-2.525c-1.932 2.016-1.744 4.387.756 6.977zm9.034 9.354c2.888 2.991 6.719 3.07 9.567.32l.104-.1c2.874-2.776 2.635-6.573-.09-9.396-2.677-2.771-6.618-3.07-9.44-.343l-.104.1c-2.784 2.688-2.925 6.428-.037 9.42zm2.135-1.961c-1.238-1.282-1.092-3.074.59-4.7l.104-.1c1.684-1.625 3.417-1.722 4.68-.415 1.262 1.308 1.092 3.075-.553 4.663l-.103.1c-1.658 1.6-3.456 1.76-4.718.452zm8.11 12.57c2.888 2.991 6.718 3.07 9.567.32l.104-.1c2.874-2.776 2.635-6.574-.09-9.396-2.677-2.771-6.618-3.07-9.44-.343l-.104.1c-2.784 2.688-2.926 6.428-.037 9.42zm2.134-1.961c-1.237-1.282-1.092-3.074.592-4.7l.103-.1c1.684-1.626 3.416-1.722 4.68-.415 1.262 1.308 1.091 3.075-.553 4.663l-.104.1c-1.657 1.6-3.455 1.76-4.718.452zm4.052 8.056l2.25 2.331 5.815-5.614-2.55 8.993 2.475 2.564 9.258-8.94-2.238-2.318-5.218 5.04 2.355-8.005-2.889-2.99-9.258 8.94z" fill="#fff"/></svg>