<?xml version="1.0" encoding="UTF-8"?><!DOCTYPE svg PUBLIC "-//W3C//DTD SVG 1.1//EN" "http://www.w3.org/Graphics/SVG/1.1/DTD/svg11.dtd"><svg xmlns="http://www.w3.org/2000/svg"><symbol id="icon-1"><path fill-rule="evenodd" clip-rule="evenodd" d="M17.106 2.04l16.03 16.007c.552.583.828 1.263.828 2.04 0 .793-.276 1.464-.83 2.018l-11.007 11.03c-.583.553-1.263.83-2.04.83a2.746 2.746 0 0 1-2.018-.83L2.04 17.083C1.472 16.53.99 15.776.594 14.819.198 13.862 0 12.988 0 12.196V2.87C0 2.092.284 1.42.852.852 1.42.284 2.092 0 2.87 0h9.326c.792 0 1.666.198 2.623.594.957.396 1.719.878 2.287 1.446zm-9.932 8.004c.792 0 1.468-.28 2.029-.841.56-.56.84-1.237.84-2.029 0-.792-.28-1.468-.84-2.029a2.765 2.765 0 0 0-2.03-.84c-.791 0-1.467.28-2.028.84-.56.56-.84 1.237-.84 2.03 0 .791.28 1.467.84 2.028.56.56 1.237.84 2.029.84z" fill="#1FDB84"/></symbol><symbol id="icon-2"><path fill-rule="evenodd" clip-rule="evenodd" d="M33.691 16.286l-5.557-5.231a.98.98 0 0 0-1.653.714v2.289h-6.539V7.519h2.289a.98.98 0 0 0 .714-1.653L17.715.31a.98.98 0 0 0-1.43 0l-5.23 5.557a.98.98 0 0 0 .714 1.653h2.289v6.539H7.519v-2.289a.98.98 0 0 0-1.653-.714L.31 16.285a.98.98 0 0 0 0 1.43l5.557 5.23a.98.98 0 0 0 1.653-.714v-2.289h6.539v6.539h-2.289a.98.98 0 0 0-.714 1.653l5.23 5.557a.98.98 0 0 0 1.43 0l5.23-5.557a.98.98 0 0 0-.714-1.653h-2.289v-6.539h6.539v2.289a.98.98 0 0 0 1.653.714l5.557-5.23a.98.98 0 0 0 0-1.43z" fill="#1FDB84"/></symbol><symbol id="icon-3"><path fill-rule="evenodd" clip-rule="evenodd" d="M6.75 19.361C6.75 5.601 14.063 0 14.063 0s7.312 5.442 7.312 19.361c0 8.825-2.703 14.344-6.223 15.286v-8.883c0-.593-.487-1.075-1.09-1.075-.601 0-1.088.482-1.088 1.075v8.883c-3.52-.942-6.224-6.461-6.224-15.286zm3.659-9.056c1.086.203 2.312.314 3.567.314 1.329 0 2.622-.121 3.749-.347-1.057-3.386-2.549-5.645-3.65-6.962-1.103 1.333-2.602 3.612-3.666 6.995zM3.726 25.706C1.668 25.706 0 27.223 0 29.094V38l6.75-5.318C5.749 30.862 5 28.5 4.56 25.706h-.834zM23.273 25.706h-.832c-.442 2.794-1.19 5.156-2.191 6.976L27 38v-8.906c0-1.871-1.668-3.388-3.727-3.388z" fill="#1FDB84"/></symbol><symbol id="icon-4"><path fill-rule="evenodd" clip-rule="evenodd" d="M33.116 28.912L19.784 15.759 4.207.393s-.888-.952-1.466.623c-.577 1.576-.936 3.327-.81 4.864.143 1.753.818 3.27 1.952 4.388l12.16 11.996 1.603-1.582 11.242 12.4c1.118 1.104 3.043 1.17 4.228 0a2.924 2.924 0 0 0 0-4.17zM10.592 19.667a.262.262 0 0 0-.368 0L.884 28.88a2.925 2.925 0 0 0 0 4.171c1.108 1.093 3.023 1.189 4.228 0l9.334-9.208a.262.262 0 0 0 0-.373l-3.854-3.803zM32.694 6.114a.197.197 0 0 0-.276 0l-5.264 5.193-1.41-1.39 5.26-5.19a.197.197 0 0 0 0-.28l-1.129-1.114a.197.197 0 0 0-.276 0l-5.264 5.194-1.41-1.39 5.261-5.19a.197.197 0 0 0 0-.28L27.056.553a.197.197 0 0 0-.275 0l-6.909 6.815a4.877 4.877 0 0 0-1.449 3.18 2.8 2.8 0 0 1-.204.887l4.577 4.516c.288-.115.592-.184.9-.202a5.004 5.004 0 0 0 3.223-1.43l6.904-6.811a.197.197 0 0 0 0-.28l-1.13-1.114z" fill="#1FDB84"/></symbol><symbol id="icon-5"><path fill-rule="evenodd" clip-rule="evenodd" d="M19.8 12.526c1.215 0 2.2.99 2.2 2.21V37.58c0 1.22-.985 2.21-2.2 2.21H2.2c-1.215 0-2.2-.99-2.2-2.21V14.737c0-1.22.985-2.21 2.2-2.21h17.6zM5.133 36.842c.405 0 .734-.33.734-.737V16.211a.735.735 0 0 0-.734-.737.735.735 0 0 0-.733.737v19.894c0 .407.328.737.733.737zm6.6.737a.735.735 0 0 1-.733.737.735.735 0 0 1-.733-.737V14.737c0-.407.328-.737.733-.737.405 0 .733.33.733.737v22.842zm5.134-.737c.405 0 .733-.33.733-.737V16.211a.735.735 0 0 0-.733-.737.735.735 0 0 0-.734.737v19.894c0 .407.329.737.734.737zM16.133 40.895c0-.204.165-.369.369-.369h1.463c.203 0 .368.165.368.369v.737a.368.368 0 0 1-.368.368h-1.463a.369.369 0 0 1-.369-.368v-.737zM3.667 40.895c0-.204.165-.369.368-.369h1.463c.204 0 .369.165.369.369v.737a.368.368 0 0 1-.369.368H4.035a.368.368 0 0 1-.368-.368v-.737zM13.932 4.053c0-.204.165-.369.368-.369h.73c.204 0 .369.165.369.369v6.631a.368.368 0 0 1-.369.369h-.73a.368.368 0 0 1-.368-.369V4.053zM16.867.368A.368.368 0 0 0 16.498 0H5.502a.368.368 0 0 0-.369.368v1.474c0 .204.165.369.369.369h10.996a.368.368 0 0 0 .369-.369V.368zM6.599 4.053c0-.204.165-.369.368-.369h.73c.203 0 .368.165.368.369v6.631a.368.368 0 0 1-.368.369h-.73a.368.368 0 0 1-.368-.369V4.053z" fill="#1FDB84"/></symbol><symbol id="icon-6"><path fill-rule="evenodd" clip-rule="evenodd" d="M13.052 18.825c0-.664-5.772-3.53-5.772-6.97C7.28 9.253 8.718 7 10.838 5.76c.675 1.432 2.054 2.896 3.953 3.976 2.49 1.413 5.129 1.762 6.842 1.087.052.34.104.679.104 1.033 0 3.438-6.1 6.305-5.77 6.969 4.626-.696 8.179-4.593 8.179-9.34C24.146 4.247 19.831 0 14.508 0c-5.32 0-9.637 4.247-9.637 9.485 0 4.747 3.557 8.644 8.18 9.34zM21.737 21.34h-1.205c0 3.275-2.697 5.928-6.024 5.928s-6.023-2.653-6.023-5.928H7.28c-3.99 0-7.228 3.184-7.228 7.114v7.113c0 1.311 1.077 2.371 2.41 2.371h24.094c1.331 0 2.41-1.06 2.41-2.37v-7.114c0-3.93-3.234-7.114-7.229-7.114z" fill="#1FDB84"/></symbol><symbol id="icon-7"><path fill-rule="evenodd" clip-rule="evenodd" d="M27.745 24.538a8.3 8.3 0 0 1-6.71 3.41H17.17a3.088 3.088 0 0 1-2.903-2.026 9.834 9.834 0 0 1-1.562-.615 10.513 10.513 0 0 1-2.916-2.15C4.203 24.38.023 29.337.023 35.267v.776c0 1.066.867 1.93 1.937 1.93h30.053c1.07 0 1.937-.864 1.937-1.93v-.775c0-4.582-2.495-8.583-6.205-10.73z" fill="#1FDB84"/><path fill-rule="evenodd" clip-rule="evenodd" d="M9.662 18.042a2.206 2.206 0 0 1-1.933 1.138 2.202 2.202 0 0 1-2.205-2.197v-5.5c0-.733.36-1.382.915-1.781C6.87 4.28 11.435 0 16.986 0s10.117 4.28 10.547 9.702c.555.399.916 1.048.916 1.781v5.5c0 .719-.347 1.357-.883 1.758v.944c0 3.588-2.93 6.506-6.53 6.506h-3.867a1.32 1.32 0 0 1-1.323-1.318 1.32 1.32 0 0 1 1.323-1.318h3.866c2.142 0 3.885-1.736 3.885-3.87v-.944a2.21 2.21 0 0 1-.61-.7c-.27.731-.574 1.402-.967 2.035-.245.396-.72 1.143-1.249 1.437a2.171 2.171 0 0 1-1.059.284H17.17a3.088 3.088 0 0 0-2.614 1.44c-2.26-.846-3.974-2.781-4.854-5.09l-.01-.025a9.08 9.08 0 0 1-.03-.08zM24.88 9.756c-.396-3.991-3.786-7.12-7.895-7.12s-7.498 3.129-7.895 7.12c.26.204.473.465.62.764l.005-.014c1.219-3.154 3.962-5.491 7.27-5.491 3.239 0 6.026 2.259 7.275 5.504.147-.299.36-.559.62-.763z" fill="#1FDB84"/></symbol><symbol id="icon-8"><path d="M.354.56h5.408c.704 0 1.302.08 1.792.24.502.15.907.357 1.216.624.31.267.534.581.672.944.15.363.224.757.224 1.184v.064c0 .672-.17 1.216-.512 1.632-.341.405-.832.683-1.472.832.672.117 1.222.395 1.648.832.427.427.64 1.04.64 1.84v.064c0 1.013-.341 1.797-1.024 2.352-.672.555-1.744.832-3.216.832H.354V.56zm4.688 9.056c.47 0 .81-.101 1.024-.304.224-.213.336-.512.336-.896v-.064c0-.373-.112-.661-.336-.864-.224-.203-.592-.304-1.104-.304H3.89v2.432h1.152zm-.048-4.592c.448 0 .768-.08.96-.24.192-.16.288-.416.288-.768v-.064c0-.341-.101-.597-.304-.768-.192-.17-.512-.256-.96-.256H3.89v2.096h1.104zm12.418 7.184c-1.035 0-1.936-.139-2.704-.416-.758-.288-1.387-.688-1.888-1.2a4.832 4.832 0 0 1-1.12-1.84c-.246-.725-.368-1.525-.368-2.4v-.128c0-.885.149-1.685.448-2.4a5.314 5.314 0 0 1 1.232-1.84A5.558 5.558 0 0 1 14.9.8a6.53 6.53 0 0 1 2.352-.416c.768 0 1.472.09 2.112.272.64.181 1.194.459 1.664.832.469.363.848.827 1.136 1.392.288.565.464 1.237.528 2.016h-3.744c-.054-.533-.219-.939-.496-1.216-.278-.288-.672-.432-1.184-.432-.662 0-1.179.25-1.552.752-.374.501-.56 1.237-.56 2.208v.128c0 .96.186 1.696.56 2.208.373.501.912.752 1.616.752.512 0 .938-.133 1.28-.4.341-.277.544-.704.608-1.28h3.616c-.054.757-.224 1.424-.512 2a4.126 4.126 0 0 1-1.136 1.424c-.48.384-1.04.677-1.68.88a7.268 7.268 0 0 1-2.096.288zM24.587.56h8.128v2.784h-4.512V4.96h3.584v2.544h-3.584v1.712h4.768V12h-8.384V.56zm10.366 0h4.704l1.936 5.552L43.561.56h4.608V12h-3.6V5.248L41.961 12h-1.216l-2.56-6.752V12h-3.232V.56z" fill="#1FDB84"/></symbol><symbol id="icon-9"><path fill-rule="evenodd" clip-rule="evenodd" d="M35.469 21.28l4.77-14.119c.24-.678.059-1.086-.134-1.356-.495-.689-1.512-.695-1.71-.695l-26.96-.006-.72-3.375C10.521.933 9.947.173 8.79.173H1.213C.427.173 0 .537 0 1.263V3.21c0 .702.426.885 1.24.885h6.398l4.896 20.553c-.778.815-1.2 2.002-1.2 3.11 0 2.437 1.962 4.684 4.47 4.684 2.367 0 4.142-2.193 4.43-3.5h9.536c.288 1.307 1.726 3.552 4.43 3.552 2.463 0 4.467-2.11 4.467-4.544 0-2.42-1.488-4.567-4.443-4.567-1.228 0-2.686.654-3.363 1.635H19.144c-.85-1.308-2.011-1.713-3.186-1.759l-.162-.856h17.827c1.343 0 1.608-.484 1.846-1.125zm-1.237 4.957c.928 0 1.68.744 1.68 1.66a1.67 1.67 0 0 1-1.68 1.661 1.671 1.671 0 0 1-1.68-1.66 1.673 1.673 0 0 1 1.68-1.661zm-18.464 3.342c.935 0 1.697-.755 1.697-1.682 0-.927-.762-1.681-1.697-1.681-.938 0-1.701.754-1.701 1.681 0 .928.763 1.68 1.7 1.682z" fill="#1FDB84"/></symbol><symbol id="notice"><rect width="30" height="30" rx="15" fill="#2DE691"/><path d="M14.954 21.14c-.44 0-.82-.147-1.14-.44a1.5 1.5 0 0 1-.46-1.1c0-.44.153-.807.46-1.1.32-.307.7-.46 1.14-.46.453 0 .833.153 1.14.46.32.293.48.66.48 1.1 0 .427-.16.793-.48 1.1-.307.293-.687.44-1.14.44zM13.634 6.7h2.7l-.38 10h-1.96l-.36-10z" fill="#fff"/></symbol></svg>