<svg width="100" height="100" fill="none" xmlns="http://www.w3.org/2000/svg"><g fill-rule="evenodd" clip-rule="evenodd"><path d="M49.644 99.288c27.418 0 49.645-22.226 49.645-49.644C99.288 22.227 77.061 0 49.643 0 22.227 0 0 22.227 0 49.644 0 77.062 22.227 99.29 49.644 99.29z" fill="#4D76A1"/><path d="M47.77 71.418h3.895s1.178-.13 1.778-.777c.553-.595.536-1.712.536-1.712s-.076-5.228 2.35-5.998c2.392-.758 5.464 5.053 8.72 7.288 2.462 1.69 4.332 1.32 4.332 1.32l8.706-.121s4.554-.28 2.394-3.862c-.176-.292-1.257-2.648-6.472-7.489-5.459-5.066-4.728-4.247 1.848-13.01 4.004-5.338 5.605-8.596 5.105-9.992-.477-1.329-3.422-.977-3.422-.977l-9.802.06s-.727-.099-1.265.224c-.527.316-.866 1.052-.866 1.052s-1.551 4.13-3.62 7.642c-4.365 7.412-6.11 7.803-6.823 7.343-1.66-1.073-1.245-4.31-1.245-6.608 0-7.183 1.089-10.177-2.122-10.952-1.065-.258-1.85-.428-4.574-.455-3.497-.037-6.457.01-8.134.832-1.115.546-1.975 1.762-1.45 1.832.647.087 2.114.396 2.892 1.455 1.004 1.367.969 4.436.969 4.436s.577 8.454-1.348 9.505c-1.321.72-3.133-.75-7.025-7.474-1.993-3.445-3.499-7.252-3.499-7.252s-.29-.711-.808-1.092c-.628-.46-1.506-.608-1.506-.608L18 36.09s-1.398.04-1.912.647c-.456.54-.036 1.66-.036 1.66s7.292 17.06 15.549 25.657c7.57 7.882 16.168 7.365 16.168 7.365z" fill="#fff"/></g></svg>