<svg width="100" height="100" fill="none" xmlns="http://www.w3.org/2000/svg"><rect width="100" height="100" rx="25" fill="#1BD741"/><g fill-rule="evenodd" clip-rule="evenodd" fill="#fff"><path d="M25.105 62.518L20.821 77.73l15.69-4.038a30.501 30.501 0 0 0 14.931 3.893c16.841 0 30.542-13.7 30.542-30.542 0-16.84-13.701-30.542-30.542-30.542-16.84 0-30.542 13.701-30.542 30.542 0 5.47 1.45 10.794 4.205 15.474zm13.143 6.189l-.935-.57-9.065 2.332 2.467-8.76-.63-.981a25.27 25.27 0 0 1-4.004-13.684c0-13.984 11.377-25.36 25.361-25.36s25.36 11.376 25.36 25.36-11.376 25.361-25.36 25.361a25.309 25.309 0 0 1-13.194-3.698z"/><path d="M42.862 32.83l-1.981-.109a2.396 2.396 0 0 0-1.704.583c-.96.834-2.497 2.447-2.969 4.55-.703 3.133.384 6.971 3.199 10.809 2.814 3.838 8.059 9.978 17.333 12.6 2.989.846 5.34.276 7.154-.884 1.436-.92 2.427-2.395 2.783-4.062l.317-1.478c.1-.47-.138-.946-.574-1.147l-6.698-3.088c-.435-.2-.95-.073-1.243.306l-2.63 3.408a.753.753 0 0 1-.845.252c-1.8-.633-7.832-3.159-11.142-9.534a.76.76 0 0 1 .096-.848l2.513-2.907c.256-.297.321-.714.167-1.075L43.75 33.45c-.154-.36-.498-.6-.889-.622z"/></g></svg>