<svg width="95" height="46" fill="none" xmlns="http://www.w3.org/2000/svg"><path d="M0 0l.06 5.773 4.97-2.939L0 0zm94 44.965l-.01-.5h-.01l-.034.001a28.662 28.662 0 0 1-.678.003 87.966 87.966 0 0 1-2.09-.034 136.25 136.25 0 0 1-7.677-.44c-6.473-.546-15.383-1.713-25.13-4.197-19.508-4.972-42.288-15.2-55.658-36.193l-.844.537c13.57 21.307 36.644 31.626 56.255 36.625 9.813 2.5 18.78 3.675 25.293 4.225 3.257.274 5.902.393 7.734.443a88.497 88.497 0 0 0 2.666.033l.143-.002h.048l-.008-.5z" fill="#50FB82"/></svg>