<svg width="321" height="62" viewBox="0 0 321 62" fill="none" xmlns="http://www.w3.org/2000/svg">
<g filter="url(#filter0_i)">
<path fill-rule="evenodd" clip-rule="evenodd" d="M9.99896 5.26256C0.609752 8.22122 -4.89687 11.7888 6.03161 49.6718C8.81261 59.3118 13.2719 60.8655 30.9508 61.4321C59.3195 62.3414 63.4321 62.8766 69.2526 46.2637C83.523 5.53289 77.3918 1.12054 55.9777 0.141681C54.4668 0.0725854 52.1849 0.000116323 49.3464 0C39.8585 -0.000116323 24.1299 0.809489 9.99896 5.26256Z" fill="url(#paint0_linear)"/>
</g>
<g filter="url(#filter1_d)">
<path fill-rule="evenodd" clip-rule="evenodd" d="M23.1648 36.5162V26.2023C23.1648 25.8966 23.2743 25.6383 23.4932 25.4275C23.7122 25.2178 23.9491 25.1118 24.2048 25.1118H29.4051C29.6968 25.1118 29.9432 25.2267 30.1441 25.4562C30.3443 25.6859 30.4452 25.9351 30.4452 26.2023V33.1301C30.4452 35.579 31.1747 40.5534 32.6348 42.0832C34.0939 43.614 36.0099 44.3789 38.3825 44.3789C40.7543 44.3789 42.6796 43.614 44.1576 42.0832C45.6356 40.5534 46.3745 35.5978 46.3745 33.1874V26.2023C46.3745 25.8966 46.4746 25.6383 46.6757 25.4275C46.8758 25.2178 47.1221 25.1118 47.4147 25.1118H52.615C52.9066 25.1118 53.153 25.2267 53.3539 25.4562C53.554 25.6859 53.655 25.9351 53.655 26.2023V36.5162C53.655 38.6593 53.2623 40.6772 52.4781 42.571C51.6929 44.465 50.6255 46.0918 49.2758 47.4494C47.9252 48.808 46.301 49.8797 44.4039 50.6634C42.506 51.4472 40.4986 51.84 38.3825 51.84C35.536 51.84 32.9537 51.1709 30.6368 49.8312C28.3189 48.4923 26.4945 46.6558 25.1628 44.3216C23.8303 41.9881 23.1648 39.3858 23.1648 36.5162Z" fill="url(#paint1_linear)"/>
<path fill-rule="evenodd" clip-rule="evenodd" d="M21.2692 16.1585C21.2692 12.8638 23.8166 10.1929 26.9591 10.1929C30.1014 10.1929 32.6489 12.8638 32.6489 16.1585C32.6489 19.4532 30.1014 22.1241 26.9591 22.1241C23.8166 22.1241 21.2692 19.4532 21.2692 16.1585Z" fill="url(#paint2_linear)"/>
<path fill-rule="evenodd" clip-rule="evenodd" d="M45.3648 19.1427C45.0723 19.1427 44.826 19.0477 44.6258 18.8557C44.4248 18.6647 44.3248 18.4163 44.3248 18.1096V14.2644C44.3248 13.9585 44.4248 13.7003 44.6258 13.4895C44.826 13.2797 45.0723 13.1738 45.3648 13.1738H54.6645C54.9562 13.1738 55.2025 13.2797 55.4035 13.4895C55.6037 13.7003 55.7045 13.9585 55.7045 14.2644V18.1096C55.7045 18.4163 55.6037 18.6647 55.4035 18.8557C55.2025 19.0477 54.9562 19.1427 54.6645 19.1427H45.3648Z" fill="url(#paint3_linear)"/>
</g>
<mask id="mask0" mask-type="alpha" maskUnits="userSpaceOnUse" x="94" y="13" width="34" height="43">
<path fill-rule="evenodd" clip-rule="evenodd" d="M94.2175 13.6104H127.468V55.4274H94.2175V13.6104Z" fill="white"/>
</mask>
<g mask="url(#mask0)">
<path fill-rule="evenodd" clip-rule="evenodd" d="M127.468 37.6924C127.468 40.4304 127.042 42.8992 126.192 45.0975C125.34 47.297 124.173 49.1639 122.688 50.6981C121.204 52.2333 119.452 53.4051 117.434 54.2139C115.415 55.0229 113.218 55.4274 110.843 55.4274C108.468 55.4274 106.261 55.0229 104.222 54.2139C102.183 53.4051 100.422 52.2333 98.938 50.6981C97.4535 49.1639 96.2956 47.297 95.4644 45.0975C94.6332 42.8992 94.2175 40.4304 94.2175 37.6924V13.6104H102.233V38.3147C102.233 39.8501 102.45 41.1986 102.886 42.3595C103.322 43.5214 103.926 44.4966 104.698 45.2842C105.469 46.0729 106.379 46.664 107.429 47.0577C108.477 47.4525 109.615 47.649 110.843 47.649C112.069 47.649 113.208 47.4525 114.257 47.0577C115.305 46.664 116.216 46.0729 116.988 45.2842C117.76 44.4966 118.363 43.5214 118.799 42.3595C119.234 41.1986 119.452 39.8501 119.452 38.3147V13.6104H127.468V37.6924Z" fill="#141414"/>
</g>
<mask id="mask1" mask-type="alpha" maskUnits="userSpaceOnUse" x="94" y="8" width="226" height="48">
<path fill-rule="evenodd" clip-rule="evenodd" d="M94.2175 55.4275H319.927V8.00977H94.2175V55.4275Z" fill="white"/>
</mask>
<g mask="url(#mask1)">
<path fill-rule="evenodd" clip-rule="evenodd" d="M134.296 38.2523H149.259V31.2207H134.296V38.2523Z" fill="#141414"/>
<path fill-rule="evenodd" clip-rule="evenodd" d="M206.477 30.8474C204.221 30.8474 202.389 31.6466 200.985 33.2432C199.579 34.8406 198.877 36.863 198.877 39.3103C198.877 41.7587 199.579 43.7597 200.985 45.3155C202.389 46.8711 204.221 47.649 206.477 47.649C207.546 47.649 208.545 47.4418 209.475 47.0266C210.405 46.6125 211.207 46.0309 211.88 45.2842C212.553 44.5376 213.087 43.6565 213.483 42.6395C213.879 41.6234 214.077 40.5142 214.077 39.3103C214.077 38.1076 213.879 36.9875 213.483 35.95C213.087 34.9135 212.553 34.0211 211.88 33.2743C211.207 32.5276 210.405 31.9364 209.475 31.5009C208.545 31.0652 207.546 30.8474 206.477 30.8474ZM206.477 23.1934C208.654 23.1934 210.702 23.6086 212.622 24.438C214.542 25.2684 216.215 26.398 217.64 27.8294C219.065 29.2607 220.193 30.9513 221.024 32.9008C221.855 34.8515 222.271 36.967 222.271 39.248C222.271 41.5301 221.855 43.6565 221.024 45.6265C220.193 47.5972 219.065 49.298 217.64 50.729C216.215 52.1604 214.542 53.2912 212.622 54.1205C210.702 54.95 208.654 55.3651 206.477 55.3651C204.3 55.3651 202.251 54.95 200.331 54.1205C198.411 53.2912 196.739 52.1604 195.314 50.729C193.889 49.298 192.77 47.5972 191.959 45.6265C191.148 43.6565 190.742 41.5301 190.742 39.248C190.742 36.967 191.148 34.8515 191.959 32.9008C192.77 30.9513 193.889 29.2607 195.314 27.8294C196.739 26.398 198.402 25.2684 200.302 24.438C202.202 23.6086 204.26 23.1934 206.477 23.1934Z" fill="#141414"/>
<path fill-rule="evenodd" clip-rule="evenodd" d="M243.553 30.785C242.603 30.785 241.683 30.9514 240.792 31.2829C239.901 31.6154 239.1 32.1336 238.387 32.8385C237.675 33.5445 237.111 34.4362 236.695 35.5145C236.28 36.5936 236.072 37.8587 236.072 39.3104C236.072 40.8038 236.289 42.0794 236.725 43.1373C237.16 44.1951 237.724 45.0664 238.417 45.7508C239.109 46.4353 239.901 46.944 240.792 47.2754C241.683 47.608 242.603 47.7733 243.553 47.7733C244.582 47.7733 245.552 47.5769 246.463 47.1822C247.373 46.7883 248.174 46.2177 248.867 45.4708C249.56 44.7242 250.104 43.8326 250.5 42.7951C250.895 41.7586 251.094 40.5762 251.094 39.248C251.094 37.9627 250.895 36.79 250.5 35.7322C250.104 34.6743 249.56 33.7828 248.867 33.0565C248.174 32.3311 247.373 31.7711 246.463 31.3761C245.552 30.9825 244.582 30.785 243.553 30.785ZM236.191 26.8648C238.288 24.4174 241.217 23.1933 244.978 23.1933C247.036 23.1933 248.936 23.5977 250.678 24.4068C252.42 25.2157 253.924 26.3357 255.191 27.7671C256.457 29.1983 257.447 30.8999 258.16 32.8698C258.872 34.8405 259.229 36.9874 259.229 39.3104C259.229 41.6342 258.872 43.7809 258.16 45.7508C257.447 47.7218 256.468 49.4223 255.221 50.8535C253.974 52.2848 252.469 53.405 250.708 54.2139C248.946 55.0229 247.036 55.4273 244.978 55.4273C242.959 55.4273 241.138 55.0432 239.516 54.2762C237.892 53.5089 236.566 52.3996 235.537 50.947V54.6805H228.175V8.00977H236.191V26.8648Z" fill="#141414"/>
<path fill-rule="evenodd" clip-rule="evenodd" d="M279.1 30.8474C276.843 30.8474 275.012 31.6466 273.607 33.2432C272.202 34.8406 271.5 36.863 271.5 39.3103C271.5 41.7587 272.202 43.7597 273.607 45.3155C275.012 46.8711 276.843 47.649 279.1 47.649C280.169 47.649 281.168 47.4418 282.098 47.0266C283.028 46.6125 283.829 46.0309 284.503 45.2842C285.176 44.5376 285.71 43.6565 286.106 42.6395C286.501 41.6234 286.7 40.5142 286.7 39.3103C286.7 38.1076 286.501 36.9875 286.106 35.95C285.71 34.9135 285.176 34.0211 284.503 33.2743C283.829 32.5276 283.028 31.9364 282.098 31.5009C281.168 31.0652 280.169 30.8474 279.1 30.8474ZM279.1 23.1934C281.276 23.1934 283.325 23.6086 285.245 24.438C287.165 25.2684 288.838 26.398 290.263 27.8294C291.687 29.2607 292.816 30.9513 293.647 32.9008C294.478 34.8515 294.894 36.967 294.894 39.248C294.894 41.5301 294.478 43.6565 293.647 45.6265C292.816 47.5972 291.687 49.298 290.263 50.729C288.838 52.1604 287.165 53.2912 285.245 54.1205C283.325 54.95 281.276 55.3651 279.1 55.3651C276.922 55.3651 274.874 54.95 272.954 54.1205C271.034 53.2912 269.362 52.1604 267.937 50.729C266.512 49.298 265.393 47.5972 264.582 45.6265C263.771 43.6565 263.365 41.5301 263.365 39.248C263.365 36.967 263.771 34.8515 264.582 32.9008C265.393 30.9513 266.512 29.2607 267.937 27.8294C269.362 26.398 271.025 25.2684 272.925 24.438C274.825 23.6086 276.882 23.1934 279.1 23.1934Z" fill="#141414"/>
<path fill-rule="evenodd" clip-rule="evenodd" d="M319.036 30.9721H310.664V43.1065C310.664 44.8908 311.109 46.1351 312 46.84C312.891 47.5461 314.265 47.898 316.127 47.898C316.602 47.898 317.155 47.8775 317.789 47.836C318.422 47.795 319.134 47.7327 319.927 47.6492V54.6809C319.095 54.888 318.224 55.0638 317.314 55.2097C316.403 55.3547 315.434 55.4277 314.405 55.4277C310.762 55.4277 307.893 54.4943 305.795 52.6274C303.697 50.7607 302.648 47.836 302.648 43.8534V30.9721H298.017V23.8782H302.648V16.0996H310.664V23.8782H319.036V30.9721Z" fill="#141414"/>
<path fill-rule="evenodd" clip-rule="evenodd" d="M176.385 26.7506C176.385 29.8309 174.172 32.6571 171.265 32.6571H163.685V20.8441H171.378C173.648 20.8441 176.385 23.7127 176.385 26.7506ZM179.674 54.2484H188.618L177.705 38.5375C181.813 36.3665 184.632 31.9034 184.632 26.7506C184.632 19.4648 178.994 13.5566 172.042 13.5566H155.768V54.2484H163.685V39.9447H169.739L179.674 54.2484Z" fill="#141414"/>
</g>
<defs>
<filter id="filter0_i" x="0" y="0" width="76.9737" height="63.8002" filterUnits="userSpaceOnUse" color-interpolation-filters="sRGB">
<feFlood flood-opacity="0" result="BackgroundImageFix"/>
<feBlend mode="normal" in="SourceGraphic" in2="BackgroundImageFix" result="shape"/>
<feColorMatrix in="SourceAlpha" type="matrix" values="0 0 0 0 0 0 0 0 0 0 0 0 0 0 0 0 0 0 127 0" result="hardAlpha"/>
<feOffset dy="2"/>
<feGaussianBlur stdDeviation="1"/>
<feComposite in2="hardAlpha" operator="arithmetic" k2="-1" k3="1"/>
<feColorMatrix type="matrix" values="0 0 0 0 0.172549 0 0 0 0 0.317647 0 0 0 0 0.74902 0 0 0 0.7 0"/>
<feBlend mode="normal" in2="shape" result="effect1_innerShadow"/>
</filter>
<filter id="filter1_d" x="19.2692" y="10.1929" width="38.4354" height="45.6471" filterUnits="userSpaceOnUse" color-interpolation-filters="sRGB">
<feFlood flood-opacity="0" result="BackgroundImageFix"/>
<feColorMatrix in="SourceAlpha" type="matrix" values="0 0 0 0 0 0 0 0 0 0 0 0 0 0 0 0 0 0 127 0"/>
<feOffset dy="2"/>
<feGaussianBlur stdDeviation="1"/>
<feColorMatrix type="matrix" values="0 0 0 0 0.172549 0 0 0 0 0.317647 0 0 0 0 0.74902 0 0 0 0.8 0"/>
<feBlend mode="normal" in2="BackgroundImageFix" result="effect1_dropShadow"/>
<feBlend mode="normal" in="SourceGraphic" in2="effect1_dropShadow" result="shape"/>
</filter>
<linearGradient id="paint0_linear" x1="103.994" y1="35.5034" x2="54.358" y2="-37.141" gradientUnits="userSpaceOnUse">
<stop stop-color="#2B53D9"/>
<stop offset="1" stop-color="#53A0FD"/>
</linearGradient>
<linearGradient id="paint1_linear" x1="14.4392" y1="9.81376" x2="14.4392" y2="51.84" gradientUnits="userSpaceOnUse">
<stop stop-color="white"/>
<stop offset="1" stop-color="#F0F0F0"/>
</linearGradient>
<linearGradient id="paint2_linear" x1="18.0125" y1="3.36395" x2="18.0125" y2="22.1241" gradientUnits="userSpaceOnUse">
<stop stop-color="white"/>
<stop offset="1" stop-color="#F0F0F0"/>
</linearGradient>
<linearGradient id="paint3_linear" x1="41.0682" y1="9.7575" x2="41.0682" y2="19.1427" gradientUnits="userSpaceOnUse">
<stop stop-color="white"/>
<stop offset="1" stop-color="#F0F0F0"/>
</linearGradient>
</defs>
</svg>
