<svg width="30" height="30" viewBox="0 0 30 30" fill="none" xmlns="http://www.w3.org/2000/svg">
<rect width="30" height="30" rx="15" fill="#2DE691"/>
<path d="M14.9541 21.14C14.5141 21.14 14.1341 20.9933 13.8141 20.7C13.5074 20.3933 13.3541 20.0267 13.3541 19.6C13.3541 19.16 13.5074 18.7933 13.8141 18.5C14.1341 18.1933 14.5141 18.04 14.9541 18.04C15.4074 18.04 15.7874 18.1933 16.0941 18.5C16.4141 18.7933 16.5741 19.16 16.5741 19.6C16.5741 20.0267 16.4141 20.3933 16.0941 20.7C15.7874 20.9933 15.4074 21.14 14.9541 21.14ZM13.6341 6.7H16.3341L15.9541 16.7H13.9941L13.6341 6.7Z" fill="white"/>
</svg>
