<svg xmlns="http://www.w3.org/2000/svg" viewBox="0 0 475.86 603.43"><defs><style>.cls-1{fill:#15e88e;}.cls-2{fill:#305fe4;}.cls-3{fill:#02030a;}.cls-4{fill:#fff;}.cls-5{font-size:48px;font-family:GraphikLCWeb-Medium, Graphik LC Web;letter-spacing:0.01em;}.cls-6{letter-spacing:-0.01em;}.cls-7{letter-spacing:0.01em;}</style></defs><title>personage</title><g id="Слой_2" data-name="Слой 2"><path class="cls-1" d="M354.72,96.65c-.39-13.54-1.66-27.78-8.85-39.63-6.58-10.85-17.27-18.35-28.56-23.69a214.84,214.84,0,0,0-84.13-20.57c-5.93-1.23-11.89-2.34-17.86-3.12a46.4,46.4,0,0,0-9.11-.21c-7-1.32-13.91-2.72-21-3.6a157.48,157.48,0,0,0-41.77.6,159.42,159.42,0,0,0-40.93,11.73c-12,5.19-25.71,11.85-34.22,22a26.17,26.17,0,0,0-6.51,16,5.12,5.12,0,0,0,2.75,4.47C52.91,84.56,54,113.15,57.38,139.09c2.36,18.27,5.58,36.55,5.43,55-.07,9.39-2,18.16-3.19,27.4-1,7.34,1.9,12.66,8.56,15.8,5.76,2.71,10.44,7.2,12.27,13.08a3.91,3.91,0,0,0,.4,1.54,19,19,0,0,1,.42,4.25c-.14,8.15-5.87,15.45-13.47,18.08a5.07,5.07,0,0,0-2.21,8.36c13.17,13.55,12,34.34,10.85,51.81-1.29,18.95-2.22,39.82,9.64,55.91,1.19,1.62,3.48,3.18,5.64,2.3,30.08-12.26,61.54-16,93.83-15a719.39,719.39,0,0,1,98.65,10.45q11.94,2.07,23.82,4.49c5.54,1.14,13.44,4.46,18.82,1.3s5.35-11,6.06-16.42a207.88,207.88,0,0,0,1.69-24.81c.17-16-1.19-32-2.75-48-.7-7.1-.77-14.81-3.75-21.41-2.73-6.06-7.23-10.51-7-17.57.19-6.21,3.22-12.26,7-17s9.82-7.89,13.17-13.12c3.9-6.11,2.37-13.83,2.21-20.65a202.61,202.61,0,0,1,.81-23.63c1.51-16.26,6.4-31.72,8.83-47.79C355.47,128,355.16,112.27,354.72,96.65ZM317.8,145.89l-6.72,27.75c-2.07,8.54-3.57,17.73-7.45,25.69-7.18,14.76-23.49,21.71-39,23.45-18.12,2-37-.23-55.09-1.71a448.89,448.89,0,0,1-56.21-7.72c-8.26-1.74-17-3.37-24.82-6.77s-12.11-9-15.67-16.39c-8-16.67-15.08-33.87-22.56-50.78-3.74-8.44-6.33-16.28-4.31-25.58a77.36,77.36,0,0,1,9.71-23.36c9.59-15.78,26-22.18,43.2-26.46l1.11-.28q14.43-2.92,28.68-6.68l11.85-2.62a4.48,4.48,0,0,0,3,.86c25.07-.93,50.16-2.19,75.25-2.75,8.56-.19,17.94.16,26.66,2.19q7,2.3,13.78,5.18a34.08,34.08,0,0,1,14.64,15.9,4.88,4.88,0,0,0,4.32,2.47,7.29,7.29,0,0,1,1.34.07c.83,2.91,1.84,5.78,2.72,8.61q2.16,6.95,4.33,13.9a60.88,60.88,0,0,0,.16,8.55Q322.23,127.65,317.8,145.89Z"/></g><g id="Слой_3" data-name="Слой 3"><path class="cls-2" d="M460.5,110.27c-7.36-6.08-16.84-8.26-26.05-9.79-3.63-.6-7.4-1.39-10.88.23-4.5,2.09-6.06,7.2-8,11.39q-7.05,15.12-14.09,30.25c-1.13,2.43-2.51,5-3.67,7.57l-7.55-11.11c-3.16-4.65-10.43-1.82-9.13,3.86A58.67,58.67,0,0,0,388,160a59.73,59.73,0,0,0,5.39,7.47c1.73,2.07,4.34,3.85,5.84,6,1,1.5.44,3.8-.38,5.95a40,40,0,0,0-2.63,5.79,4.13,4.13,0,0,0-.22,1.76l-2.16,6.22L386.28,215c-1.29,3.72-2.58,7.46-4,11.18-7.85,16.85-19.48,34.3-39.11,35.23a5.47,5.47,0,0,0-1.78.37l.08-.51c1-6.29-8.63-9-9.64-2.65q-1,6.44-2.05,12.87c-.39,2.4.59,5.72,3.49,6.15,14.7,2.14,28.61-3.77,38.94-14.21,9.42-9.53,15-22,19.64-34.41a292.39,292.39,0,0,0,11.75-30.78,78.65,78.65,0,0,1,4.44-11.4c.35-.57.67-1.18,1-1.82s.87-1.4,1.34-2.07a4.5,4.5,0,0,0,4-1.4c2.89-3.06,8.2-1.71,7.29,3.12-.57,3,1.34,6.54,4.82,6.33,8.57-.5,15.11-5.95,19.22-13.25,2.45-4.35,3.9-9.17,6-13.69a55.94,55.94,0,0,1,7.65-11.71c4.94-6.14,10.06-12.47,10.91-20.59C471.16,123.4,466.85,115.52,460.5,110.27Z"/><path class="cls-2" d="M58.2,325.89c-1.37-2.9-2.69-5.79-4.13-8.47a150.26,150.26,0,0,0-12.61-19.5,23.11,23.11,0,0,1-.94-18.35,36,36,0,0,1,4.41-2.49c5-2.54,10.07-4.85,15.09-7.26,7.09-3.4,16.08-7.57,15.63-16.83a5.33,5.33,0,0,0-1-2.84c.63-3.25-1.92-7.19-6.08-6a66.65,66.65,0,0,0-19.1,8.58c-5.73,3.81-10.35,8.68-15.38,13.31-8.27,7.62-23.72,13.78-24.28,26.85-.25,5.7,3.14,9.24,7.62,11.8a5.2,5.2,0,0,0,1.84,1.67c19.89,11.25,28,34.87,44.77,49.65,3.17,2.8,8.61.31,8.81-3.24a4.67,4.67,0,0,0,1.64-5.07C71.63,338.49,64.87,332.27,58.2,325.89Z"/><path class="cls-2" d="M342.69,588.7c-1.45-12.5-13.48-11.87-23.24-11.59a92.69,92.69,0,0,1-19.11-1.38c-2.51-.46-5.64-.71-7.95-1.87-3-1.51-2.07-4.69-1.95-7.64.54-12.54,1.4-25.12,1.56-37.67.08-6.6-.6-13.55-3.64-19.33A167,167,0,0,0,286.75,484c.26-1.56.53-3.13.79-4.69,1.41-8.78,2.08-17.63-.56-26a65.85,65.85,0,0,0,12.36-4.76c13.5-7,22.52-22.44,17.39-37.63l-.33-.88c3.62-1.05,5.56-6.68,1.34-9.2C290.1,384.4,254.92,385.93,223.89,384c-17.35-1.11-34.71-2.47-52.08-3.22-15.58-.67-31.49-.44-46.68,3.5-7.75,2-16.67,4.9-22.95,10A16.15,16.15,0,0,0,99.51,397a21.47,21.47,0,0,0-10.8,14.58A5,5,0,0,0,85.48,415a22,22,0,0,0,10.74,26.44,6,6,0,0,0,1.36.49,5.4,5.4,0,0,0,4.48,2.91c13.42,1.7,26.87,3.56,40.34,5.32a32.9,32.9,0,0,0-.68,6c-2,2.75-2.49,6.79-2.84,10.11,0,.28,0,.56-.06.84a4.72,4.72,0,0,0-.74,4c.22.73.42,1.45.62,2.18.07,1.44.23,2.87.43,4.3-.24.8-.45,1.62-.63,2.44a6.09,6.09,0,0,0-2,5.32A230.21,230.21,0,0,0,143,511.83c-.06,1.2-.14,2.41-.23,3.61a4.63,4.63,0,0,0-1.63,5.12,152.77,152.77,0,0,0,14.15,36.52,6,6,0,0,0-1.08.79c-.34.32-.7.62-1.05.93-9.78,8.21-25,6.53-36.4,11.18a30.83,30.83,0,0,0-8.26,4.72c-.47,0-.93,0-1.39-.05-5-.31-6.7,7-2.53,9.31l.21.11,0,.14c1.59,6.3,10.45,9.67,16.08,11.08,7.83,2,13.15-.66,19.06-5.59,5.67-4.73,13.54-2.76,18.79-8.75,2.25-2.58,3.89-5.15,6.64-7.3,2.5-1.95,5.14-3.75,6.79-6.54,3.08-5.18,2.44-11.75-2.4-15.36,3.27-5.07,2.23-11.69,1.36-17.62a247.65,247.65,0,0,1-2.54-31.36,252.29,252.29,0,0,1,1.34-30.85c.65-6.25,1.4-12.57-.32-18.46,23.31,2.63,46.68,4.47,70.09,4.25,8.77-.09,18.22-.12,27.57-1q0,3.25,0,6.53a11.15,11.15,0,0,0-.36,3.47,9.11,9.11,0,0,0,.48,2.44q.57,23.71,3.39,47.31a5.3,5.3,0,0,0,1.43,3c-1.43,15.79,1.69,31.71,5.56,47.2l-.88.39v0l-.2.12a16.09,16.09,0,0,0-2.61,1.53c-3.85,2.28-7.16,4.82-5.24,10.13,1.83,5.05,6.84,7,11.77,7.64,10.37,1.26,19.8,9.83,30.53,6.52a4.09,4.09,0,0,0,.49-.18,105,105,0,0,0,26,.91C340.14,593.48,343,591.58,342.69,588.7Z"/><path class="cls-2" d="M315.63,96.73c-.35-10.52-6.24-17.51-16.23-20.37C270.91,64.75,239.2,62,208.7,63.21a384.41,384.41,0,0,0-50.19,5.51q-12.39,2.13-24.65,4.88c-6.91,1.55-14.31,2.7-20.75,5.78a20.35,20.35,0,0,0-11.39,15.67c-.13.78-.21,1.58-.28,2.38a4.68,4.68,0,0,0-2.49,4.2l-.48,16.61a4.49,4.49,0,0,0,1.59,3.55A248.41,248.41,0,0,0,111.16,176c3.38,10.33,8.46,18.16,18.58,22.84,10.51,4.86,22,8.14,33.2,10.9a253.76,253.76,0,0,0,71,7.17,252.71,252.71,0,0,0,35.76-4c10.21-1.9,19.35-5.26,25.72-13.85,5.78-7.79,8.29-17.47,10.2-26.82,2.58-12.63,4.66-25.36,6.38-38.14C313.64,121.89,316,109,315.63,96.73Z"/></g><g id="Слой_4" data-name="Слой 4"><path class="cls-3" d="M325.69,105.79c-1.1-8-2.33-16.76-6.31-23.87a23.91,23.91,0,0,0-5.59-6.61,5.15,5.15,0,0,0-1-1.72,61.32,61.32,0,0,0-60.07-18.37c-17.37-1.17-34.87.41-52.19,1.58-9.68.65-19.45,1-29.07,2.24-9.22,1.2-17.61,4.37-26.38,7.27C130,71.3,113.72,74.53,101,84.62c-7.53,6-11.58,13.07-12.08,22.71-.13,2.44-.15,4.89-.1,7.34a4.73,4.73,0,0,0-2,5.25c1.19,4.79,2.51,9.54,3.92,14.26.39,2.21.8,4.41,1.27,6.59a4.54,4.54,0,0,0,1.68,2.75q3.93,11.74,8.81,23.17t10.73,22.54c3.49,6.59,7.48,12.58,14.32,16,7.17,3.63,15.2,6,22.79,8.59a242.65,242.65,0,0,0,24.47,7.26c16.43,3.81,33.1,4.34,49.89,3.84,16.56-.48,33.45-.71,49.67-4.45,7.3-1.68,15-3.95,21-8.61,5.56-4.33,8.62-10.57,11.66-16.76,3.4-7,6.26-13.93,7.39-21.64s1-15.79,2.11-23.62c1.15-8,4.9-14.79,7.57-22.3C326.62,120.49,326.72,113.18,325.69,105.79Zm-11.23,19.13c-2.43,6.87-5.94,13.09-7.26,20.35-2.55,13.89-1,27.73-6.95,40.92-2.35,5.2-4.83,11.33-8.65,15.64-4.68,5.29-12.37,7.23-19,8.82-14.38,3.46-29.34,3.68-44.05,4.18-15.22.52-30.54.74-45.55-2.18-14.26-2.76-28-7.62-41.62-12.59-3.95-1.44-8.35-2.64-11.78-5.16-2.94-2.17-4.78-5.31-6.52-8.44-3.87-6.93-7.29-14.15-10.49-21.42a283.2,283.2,0,0,1-12.13-33.19,121.34,121.34,0,0,1-1.67-20c0-3.82-.14-8.06,1.49-11.61,1.74-3.79,5.32-6.83,8.65-9.18,11.92-8.43,26.8-11,40.38-15.67,7.9-2.69,15.59-5.58,23.93-6.6,8.71-1.07,17.54-1.36,26.29-2,16.47-1.11,33-2.58,49.55-1.83a5.13,5.13,0,0,0,3.66.55c.47-.1.93-.16,1.4-.23a126.26,126.26,0,0,1,41,10.29l.4.21c5.14,2.74,11.63,5.37,14.84,10.46,3.31,5.25,4.13,12.58,5.12,18.58C316.64,111.75,316.8,118.31,314.46,124.92Z"/><path class="cls-3" d="M454.54,95.58c-6.74-2.54-14.19-3.11-21.33-3.3-7.78-.21-13.74.23-18.28,7.22-7.61,11.74-9.64,26.82-18.11,37.89a72.06,72.06,0,0,0-5.37-8.75c-2-2.77-6.85-3.69-8.64,0-1.93,4-7.55,5-9.87,9.09-2.72,4.82-.77,10,2.08,14.21,3.9,5.78,7.74,11.39,10.42,17.9,3,7.35,1.94,12.67-.3,20-4.1,13.51-7.79,27.24-12.47,40.56-3.32,9.47-10.49,23.18-22,22.68a20.63,20.63,0,0,0,2.24-10c0-16.41-3.7-32.49-1.41-48.94,2.09-15.09,7.43-29.51,10.73-44.35a138.56,138.56,0,0,0,1.81-48.22C362.15,86.72,359.63,70.68,354,56.7S337.33,36,324,30.26A367.58,367.58,0,0,0,190.39.23a361.33,361.33,0,0,0-46.76,1.36c-13.89,1.31-28,3.1-41.27,7.5-25.25,8.33-43,26.64-50.86,52-8.2,26.46-5.43,54.18-1.87,81.14,2.16,16.41,4.47,32.9,4.22,49.49a147.63,147.63,0,0,1-2.76,25.07c-1.24,6.67-2.09,13.58.57,20a22.64,22.64,0,0,0,1.58,3.06,5.18,5.18,0,0,0-1.47,2c-2.45,5.94-9,6.3-13.82,9.46-5.72,3.79-10.72,8.94-15.86,13.44-4.77,4.18-9.58,8.3-14.3,12.52-4.25,3.8-8.06,8.23-7.77,14.32.23,5,3.06,9.43,6.18,13.22,4.67,5.65,9.91,11,15.08,16.17,8.72,8.74,18.8,16,27.39,24.87,4.13,4.27,6.91,9,10.25,13.82,2.3,3.32,5.46,5.89,9.4,6.34a4.55,4.55,0,0,0-.1.66,42.37,42.37,0,0,0,4.55,23c2,3.83,5.34,9.22,9.5,12.34-14.15,17.52,3.2,45.46,22.51,51a4.68,4.68,0,0,0,3.09-.08,49.58,49.58,0,0,0,19.81,5.05c3,.11,7.44-1,8.81,2.38,1.28,3.18-.74,7.22-1.8,10.15a50,50,0,0,0-3.07,23.28,53,53,0,0,0,2.74,11.31c1.42,4.09,3.38,8.32,2.7,12.72a4.65,4.65,0,0,0-1.35,6.34,75.73,75.73,0,0,1,7.63,17.83c.67,2.4,3,8.13,2.15,10.53-.52,1.55-6.75,2.18-8.36,2.63-12.22,3.48-24.75,8.43-35.49,15.3-3.93,2.51-7.86,6.09-7.42,11.19.46,5.36,6.27,10.41,10,13.79,10,9,21.17,9.9,33.44,4.82a141.09,141.09,0,0,0,33.2-19.65c4.18-3.29,9.11-6.79,11.18-11.88,2.51-6.2.45-13-.69-19.26a435.44,435.44,0,0,1-5.68-44.21q-.84-10.72-1.14-21.47c-.1-3.26-.16-6.51-.18-9.77a49.81,49.81,0,0,1,0-5.86c.36-3.13.36-3.86,3.79-4.08,6.3-.42,12.48,2.36,18.39,4.18a112,112,0,0,0,21.06,4.24A110.64,110.64,0,0,0,258,469.21c.83-.22,2.19-1,3-.71s1.84,3.95,2.17,4.82a66.51,66.51,0,0,1,2.43,8.28,182.56,182.56,0,0,1,3.16,21.46c.77,7.14,1.41,14.35.78,21.53s-3.11,14.1-3.63,21.33c-.38,5.41,1.84,11.28.6,16.57s-7.44,4.42-9.65,9c-2.48,5.17,1.61,8.75,5.77,10.92,6.38,3.34,13,6.27,19.63,9,12.37,5.11,25.17,9.59,38.54,11,9.27,1,28,1.73,32.58-8.87,2.29-5.35-.91-10-5.14-13.16a92.25,92.25,0,0,0-18.85-11,42.13,42.13,0,0,0-20-3.21c-3.71.27-6.7.37-8.82-3a14.09,14.09,0,0,1-1.84-7.54c0-7.64,3.26-14.9,3.14-22.61-.1-7-1.86-13.75-3.54-20.46-2-8-3.29-15.64-2.82-23.91s2.2-16.22,3.9-24.21c20.75-11.23,32.46-36.73,26.19-59.65a13.14,13.14,0,0,1,8.31,4.94c2.85,3.46,8.53.51,8.53-3.54l0-51.92c0-16.35,1-33-.32-49.34a65.61,65.61,0,0,0-5.09-20.72c22.73,1.1,44.24-11.44,55.06-31.49,10-18.45,11.71-41.52,24.78-58.22a4.88,4.88,0,0,0,3.3,3.61c16.21,5.6,27.29-9.62,34-21.88,8.19-15,19.94-28.12,21.47-45.9C477,115.11,469,101.05,454.54,95.58ZM69.24,354.4c-.1.81-.14,1.36-.16,1.74a.27.27,0,0,0-.16-.17,4.63,4.63,0,0,1-1.74-1.85c-1.27-1.81-2.25-3.82-3.5-5.64a77.91,77.91,0,0,0-10.22-11.91c-7.19-7-15.23-13-22.42-19.94-4.08-3.94-8-8.07-11.82-12.24-3.11-3.36-10.3-9.13-9.09-14.4.54-2.31,3-4.08,4.73-5.58,2.36-2.1,4.77-4.17,7.15-6.26l15.74-13.77a41.47,41.47,0,0,1,6.56-5.19c2.3-1.3,4.92-1.89,7.26-3.11a20.47,20.47,0,0,0,8.92-9.48,19,19,0,0,0,3.08,1.23,4.5,4.5,0,0,0,4.81-1.32h.09c3.41-.07,4.35,4.68,4.19,7.4-.28,4.69-3.27,9.35-6.73,12.36-6.37,5.52-16,4.82-21.77,11.26-6.66,7.41-2.75,18.31.72,26.26a66.29,66.29,0,0,0,17.19,23.37c3.35,2.89,8.85,5.26,8.9,10.18C71,342.94,69.86,348.85,69.24,354.4ZM69.17,320a55.35,55.35,0,0,1-16.87-24.5c-1-2.93-2.82-7.3-1.35-10.34,1.1-2.29,4-3.13,6.22-3.87l.57-.19a5.3,5.3,0,0,0,.53,2.11A127,127,0,0,1,69.17,320ZM292,457.17a5.53,5.53,0,0,0-2.78,7.55c-2.56,12.18-4.8,24.61-3.24,37.06,1.63,13,7.65,25.41,5.25,38.74-1.88,10.39-5.1,22.08,3,30.84a16.34,16.34,0,0,0,12.4,5.12c7,0,12.56-.54,19.26,2.31a79.38,79.38,0,0,1,16.22,9.54c2.2,1.66,2.85,1.29.26,2.5-3.07,1.42-7.32,1.76-10.64,2-13.73.86-27.26-3.42-39.94-8.24q-8.9-3.39-17.49-7.47c-.52-.25-2.55-1.48-4.47-2.54a17,17,0,0,0,1.48-1.13c9.19-7.93,3.38-21.19,5.13-31.41,1.12-6.5,2.86-12.75,3.24-19.37.41-7.2-.33-14.39-1.14-21.53-1.37-12.18-2.42-25.38-8.24-36.41-2.33-4.41-6-6.7-11.07-6-6.94.91-13.53,3.38-20.59,4a101.69,101.69,0,0,1-39.46-4c-8.88-2.71-26.22-9.67-33.1.53-3.06,4.53-1.78,11.73-1.72,16.83q.13,11.73.88,23.44,1.29,20.17,4.37,40.19c1.06,7,3.14,14.15,3.59,21.16.43,6.63-6.41,10.56-11.18,14.11a138,138,0,0,1-17.68,11.2c-6.53,3.48-14.7,8.21-22.33,7.6-6.5-.52-12.3-5.92-16.14-10.88-.39-.5-1.51-1.31-1.4-2.06.17-1.16,4.42-2.94,5.27-3.42q4.67-2.62,9.52-4.9a136,136,0,0,1,20.5-7.6c5-1.41,12.4-1.81,14.92-7.17,2.42-5.14-.3-13.21-1.72-18.3a85,85,0,0,0-6.84-16.95,5.48,5.48,0,0,0,.44-1.26c2.09-9.77-3.32-17.6-4.89-26.94a37,37,0,0,1,.79-15.46c1.19-4.5,3.38-8.67,4.06-13.31,1-7.07-2.05-14.85-9.47-16.81-4.24-1.12-8.73-.31-13-.92a40.55,40.55,0,0,1-14.38-5.08,4.59,4.59,0,0,0-4.66-.12c-12.51-5.49-25.08-25-13.2-36.07a4.52,4.52,0,0,0,1.54-3.05c1.74-.83,3.38-2,5.07-3a70.89,70.89,0,0,1,12.16-5.78,111.12,111.12,0,0,1,26.11-5.81c17.86-1.9,36-1.25,53.92-.95,19.51.34,39.05,1.06,58.47,3.09a304.34,304.34,0,0,1,64.6,13.47,5.46,5.46,0,0,0,1.48.27C321.67,424.68,312,449,292,457.17Zm40.56-132.76,0,28q0,22,0,44.1a23,23,0,0,0-14.71-.89,5.27,5.27,0,0,0-1.48-.75c-34.51-11.51-70.94-15.2-107.13-16.45-18-.62-36-1-54-.62-16.17.37-32.8,1.83-48.06,7.55a89.38,89.38,0,0,0-11.62,5.28c-1.17.64-5.11,3.91-6.41,3.89-1,0-2.78-2.59-3.41-3.32a32.6,32.6,0,0,1-7.48-24.42,4.14,4.14,0,0,0-1.56-3.86A13.81,13.81,0,0,0,79,356.24c.82-6.59,2.27-13.85,1.91-20.47A13.8,13.8,0,0,0,78,327.93a4,4,0,0,0,1.67-4A141.17,141.17,0,0,0,66.9,278.15a4.11,4.11,0,0,0-.27-.51,28.38,28.38,0,0,0,5.27-3.36,30.23,30.23,0,0,0,9.95-15.23c2.56-9.47-1.88-22.74-13.38-22.53a4.71,4.71,0,0,0-3.29,1.28c-5.67-2.46-5.71-10.23-5-15.54,1.16-8,2.9-15.8,3.38-23.92.91-15.25-.69-30.51-2.61-45.62-3.33-26.21-7.84-52.85-2.39-79.11,5.06-24.35,18.77-44.53,42.61-53.55,12.41-4.69,25.69-6.74,38.83-8.11a360.73,360.73,0,0,1,129,9.88,363,363,0,0,1,41,13.44c12.38,4.9,27.05,9.58,33.36,22.32,3,6.14,4.46,13.06,6,19.7,1.73,7.54,3.29,15.13,4.39,22.78,2.28,15.74,2.23,31.56-1.23,47.11-3.18,14.27-8.17,28.12-10.47,42.58-2.37,14.9-.85,29.51.28,44.44a70.24,70.24,0,0,1,.49,10.25c-.34,4.52-2.14,4.24-6.08,4.84-6.14.93-10.62,5.08-12.89,10.77-5.66,14.15,5.43,26.59,7.71,40.12C333,308.13,332.58,316.38,332.58,324.41Zm123-169.32c-4.8,7.45-9.05,15.12-13.65,22.68-4,6.56-10.6,13.7-19,10.79a5.07,5.07,0,0,0-1.69-.3c.37-4.09-4.89-7.94-8.43-4.15-14.95,16-17.83,37.76-26.13,57.17-9.17,21.44-28.87,35.26-52.66,32.79a6.2,6.2,0,0,0-1,0,16,16,0,0,1-.14-9.51c1.58-4.77,4.77-5,8.31-5.6a4.55,4.55,0,0,0,3.36,3.26c13.22,3.67,25.3-4.9,31.84-15.9,7.28-12.27,10.3-27.29,14.4-40.81,2.22-7.28,5.13-14.68,6.43-22.19,1.27-7.28-1-13.92-4-20.47a83.7,83.7,0,0,0-4.84-9.06c-1.63-2.64-5.64-6.45-6.36-9.48-.66-2.76,1.81-3.33,3.89-4.75l.52-.37a60.48,60.48,0,0,1,4.18,8.32c1.46,3.57,5.31,4.84,8.36,2.21,11.34-9.78,14.57-24.38,20.52-37.46,1.26-2.77,3.14-8.39,6.05-9.82,2.58-1.26,7.88-.18,10.72,0,7.66.39,16.14,1.5,22.15,6.73C472.59,121.48,463.89,142.25,455.62,155.09Z"/></g><g id="Слой_5" data-name="Слой 5"><path class="cls-4" d="M252,86.63H222.67c-12.87,0-12.89,20,0,20H252C264.87,106.63,264.89,86.63,252,86.63Z"/><path class="cls-4" d="M189.28,90.61a8.27,8.27,0,0,0-.36-2.84c-1.76-5.46-6.79-8.08-12.3-7-8,1.6-14.63,9.15-12.39,17.62a12.84,12.84,0,0,0,8.93,9.18,14.22,14.22,0,0,0,7.24-.11l.65-.17c4.58.47,9.57-2.82,10.59-7.33A10.22,10.22,0,0,0,189.28,90.61Z"/><path class="cls-4" d="M252.25,127.9c-3.86-15-27-8.61-23.15,6.38,2.59,10-.56,20.18-4.12,29.6-1.48,3.92-2.14,6-6.09,7.47-4.27,1.54-8.92,3.15-13.45,3-7.32-.2-10.94-10-12.83-16.65a47.79,47.79,0,0,1,.73-28.26c2-6.17-2.33-13.1-8.38-14.76-6.49-1.79-12.76,2.19-14.76,8.38-8.57,26.47-.08,74.93,35.24,75.29,7.52.07,15.14-2,22.11-4.72,8.81-3.38,14.38-8.52,18.08-17.23C252.17,161.07,256.53,144.48,252.25,127.9Z"/></g><g id="Слой_6" data-name="Слой 6"><text class="cls-5" transform="translate(105.34 306.63)">U-<tspan class="cls-6" x="53.38" y="0">R</tspan><tspan class="cls-7" x="84.72" y="0">obot</tspan></text></g></svg>