<svg width="34" height="34" fill="none" xmlns="http://www.w3.org/2000/svg"><path fill-rule="evenodd" clip-rule="evenodd" d="M33.691 16.286l-5.557-5.231a.98.98 0 0 0-1.653.714v2.289h-6.539V7.519h2.289a.98.98 0 0 0 .714-1.653L17.715.31a.98.98 0 0 0-1.43 0l-5.23 5.557a.98.98 0 0 0 .714 1.653h2.289v6.539H7.519v-2.289a.98.98 0 0 0-1.653-.714L.31 16.285a.98.98 0 0 0 0 1.43l5.557 5.23a.98.98 0 0 0 1.653-.714v-2.289h6.539v6.539h-2.289a.98.98 0 0 0-.714 1.653l5.23 5.557a.98.98 0 0 0 1.43 0l5.23-5.557a.98.98 0 0 0-.714-1.653h-2.289v-6.539h6.539v2.289a.98.98 0 0 0 1.653.714l5.557-5.23a.98.98 0 0 0 0-1.43z" fill="#1FDB84"/></svg>