<svg width="27" height="38" fill="none" xmlns="http://www.w3.org/2000/svg"><path fill-rule="evenodd" clip-rule="evenodd" d="M6.75 19.361C6.75 5.601 14.063 0 14.063 0s7.312 5.442 7.312 19.361c0 8.825-2.703 14.344-6.223 15.286v-8.883c0-.593-.487-1.075-1.09-1.075-.601 0-1.088.482-1.088 1.075v8.883c-3.52-.942-6.224-6.461-6.224-15.286zm3.659-9.056c1.086.203 2.312.314 3.567.314 1.329 0 2.622-.121 3.749-.347-1.057-3.386-2.549-5.645-3.65-6.962-1.103 1.333-2.602 3.612-3.666 6.995zM3.726 25.706C1.668 25.706 0 27.223 0 29.094V38l6.75-5.318C5.749 30.862 5 28.5 4.56 25.706h-.834zM23.273 25.706h-.832c-.442 2.794-1.19 5.156-2.191 6.976L27 38v-8.906c0-1.871-1.668-3.388-3.727-3.388z" fill="#1FDB84"/></svg>