<svg width="34" height="34" fill="none" xmlns="http://www.w3.org/2000/svg"><path fill-rule="evenodd" clip-rule="evenodd" d="M17.106 2.04l16.03 16.007c.552.583.828 1.263.828 2.04 0 .793-.276 1.464-.83 2.018l-11.007 11.03c-.583.553-1.263.83-2.04.83a2.746 2.746 0 0 1-2.018-.83L2.04 17.083C1.472 16.53.99 15.776.594 14.819.198 13.862 0 12.988 0 12.196V2.87C0 2.092.284 1.42.852.852 1.42.284 2.092 0 2.87 0h9.326c.792 0 1.666.198 2.623.594.957.396 1.719.878 2.287 1.446zm-9.932 8.004c.792 0 1.468-.28 2.029-.841.56-.56.84-1.237.84-2.029 0-.792-.28-1.468-.84-2.029a2.765 2.765 0 0 0-2.03-.84c-.791 0-1.467.28-2.028.84-.56.56-.84 1.237-.84 2.03 0 .791.28 1.467.84 2.028.56.56 1.237.84 2.029.84z" fill="#1FDB84"/></svg>