<svg width="34" height="34" fill="none" xmlns="http://www.w3.org/2000/svg"><path fill-rule="evenodd" clip-rule="evenodd" d="M33.116 28.912L19.784 15.759 4.207.393s-.888-.952-1.466.623c-.577 1.576-.936 3.327-.81 4.864.143 1.753.818 3.27 1.952 4.388l12.16 11.996 1.603-1.582 11.242 12.4c1.118 1.104 3.043 1.17 4.228 0a2.924 2.924 0 0 0 0-4.17zM10.592 19.667a.262.262 0 0 0-.368 0L.884 28.88a2.925 2.925 0 0 0 0 4.171c1.108 1.093 3.023 1.189 4.228 0l9.334-9.208a.262.262 0 0 0 0-.373l-3.854-3.803zM32.694 6.114a.197.197 0 0 0-.276 0l-5.264 5.193-1.41-1.39 5.26-5.19a.197.197 0 0 0 0-.28l-1.129-1.114a.197.197 0 0 0-.276 0l-5.264 5.194-1.41-1.39 5.261-5.19a.197.197 0 0 0 0-.28L27.056.553a.197.197 0 0 0-.275 0l-6.909 6.815a4.877 4.877 0 0 0-1.449 3.18 2.8 2.8 0 0 1-.204.887l4.577 4.516c.288-.115.592-.184.9-.202a5.004 5.004 0 0 0 3.223-1.43l6.904-6.811a.197.197 0 0 0 0-.28l-1.13-1.114z" fill="#1FDB84"/></svg>