<svg width="49" height="13" fill="none" xmlns="http://www.w3.org/2000/svg"><path d="M.354.56h5.408c.704 0 1.302.08 1.792.24.502.15.907.357 1.216.624.31.267.534.581.672.944.15.363.224.757.224 1.184v.064c0 .672-.17 1.216-.512 1.632-.341.405-.832.683-1.472.832.672.117 1.222.395 1.648.832.427.427.64 1.04.64 1.84v.064c0 1.013-.341 1.797-1.024 2.352-.672.555-1.744.832-3.216.832H.354V.56zm4.688 9.056c.47 0 .81-.101 1.024-.304.224-.213.336-.512.336-.896v-.064c0-.373-.112-.661-.336-.864-.224-.203-.592-.304-1.104-.304H3.89v2.432h1.152zm-.048-4.592c.448 0 .768-.08.96-.24.192-.16.288-.416.288-.768v-.064c0-.341-.101-.597-.304-.768-.192-.17-.512-.256-.96-.256H3.89v2.096h1.104zm12.418 7.184c-1.035 0-1.936-.139-2.704-.416-.758-.288-1.387-.688-1.888-1.2a4.832 4.832 0 0 1-1.12-1.84c-.246-.725-.368-1.525-.368-2.4v-.128c0-.885.149-1.685.448-2.4a5.314 5.314 0 0 1 1.232-1.84A5.558 5.558 0 0 1 14.9.8a6.53 6.53 0 0 1 2.352-.416c.768 0 1.472.09 2.112.272.64.181 1.194.459 1.664.832.469.363.848.827 1.136 1.392.288.565.464 1.237.528 2.016h-3.744c-.054-.533-.219-.939-.496-1.216-.278-.288-.672-.432-1.184-.432-.662 0-1.179.25-1.552.752-.374.501-.56 1.237-.56 2.208v.128c0 .96.186 1.696.56 2.208.373.501.912.752 1.616.752.512 0 .938-.133 1.28-.4.341-.277.544-.704.608-1.28h3.616c-.054.757-.224 1.424-.512 2a4.126 4.126 0 0 1-1.136 1.424c-.48.384-1.04.677-1.68.88a7.268 7.268 0 0 1-2.096.288zM24.587.56h8.128v2.784h-4.512V4.96h3.584v2.544h-3.584v1.712h4.768V12h-8.384V.56zm10.366 0h4.704l1.936 5.552L43.561.56h4.608V12h-3.6V5.248L41.961 12h-1.216l-2.56-6.752V12h-3.232V.56z" fill="#1FDB84"/></svg>