<svg width="100" height="100" fill="none" xmlns="http://www.w3.org/2000/svg"><rect width="100" height="100" rx="25" fill="#61A8DE"/><path fill-rule="evenodd" clip-rule="evenodd" d="M21.397 48.579L71.52 29.046c1.908-.744 3.88.926 3.46 2.93l-8.557 40.915c-.401 1.92-2.653 2.782-4.235 1.621l-12.92-9.484-6.586 6.724c-1.156 1.18-3.152.703-3.649-.873L34.28 55.796l-12.737-3.761c-1.671-.494-1.77-2.824-.146-3.456zm20.557 10.135l23.282-20.588c.558-.493-.09-1.363-.722-.97L37.02 54.206c-.484.3-.704.89-.535 1.434l3.688 11.884c.077.25.441.215.47-.045l.897-7.968a1.25 1.25 0 0 1 .414-.798z" fill="#fff"/></svg>