<svg width="100" height="100" fill="none" xmlns="http://www.w3.org/2000/svg"><rect width="100" height="100" rx="25" fill="#7D3DAF"/><g fill-rule="evenodd" clip-rule="evenodd" fill="#fff"><path d="M77.977 34.436l.017.07a54.956 54.956 0 0 1 0 23.673l-.017.069c-1.391 5.624-7.663 11.66-13.423 12.915l-.065.013a74.826 74.826 0 0 1-14.039 1.332 74.1 74.1 0 0 1-4.14-.12L39.95 79c-1.575 1.64-4.344.523-4.344-1.749v-6.278c-5.545-1.583-11.35-7.341-12.684-12.725l-.015-.07a54.955 54.955 0 0 1 0-23.673l.015-.069c1.393-5.624 7.665-11.659 13.423-12.914l.067-.014a74.594 74.594 0 0 1 28.077 0l.065.014c5.76 1.255 12.032 7.29 13.423 12.914zM63.486 66.114c3.783-.843 8.546-5.405 9.474-9.074a49.816 49.816 0 0 0 0-21.396c-.928-3.67-5.689-8.23-9.474-9.074a69.471 69.471 0 0 0-26.072 0c-3.784.843-8.545 5.405-9.475 9.074a49.871 49.871 0 0 0 0 21.396c.93 3.669 5.69 8.23 9.474 9.073h.003c.17.034.292.18.292.352v10.4c0 .52.634.776.995.4l4.94-5.07 4.645-4.768a.354.354 0 0 1 .264-.107c4.987.138 9.98-.264 14.934-1.206z"/><path d="M58.681 61.84c-.581-.176-1.136-.295-1.65-.508-5.335-2.214-10.245-5.07-14.134-9.446-2.212-2.49-3.943-5.3-5.406-8.274-.694-1.41-1.279-2.876-1.875-4.332-.543-1.327.257-2.7 1.1-3.7.791-.938 1.809-1.657 2.911-2.186.86-.414 1.71-.175 2.337.554 1.359 1.576 2.607 3.233 3.617 5.061.621 1.124.45 2.498-.675 3.263-.274.186-.523.404-.778.614-.224.184-.434.37-.587.62-.28.456-.294.993-.114 1.489 1.389 3.816 3.73 6.783 7.57 8.381.615.256 1.232.554 1.94.471 1.186-.138 1.57-1.439 2.4-2.119.813-.664 1.85-.672 2.726-.119a56.563 56.563 0 0 1 2.566 1.75c.828.59 1.652 1.166 2.415 1.838.734.647.987 1.495.574 2.372-.757 1.607-1.858 2.944-3.447 3.797-.448.24-.984.319-1.49.474.506-.155-.581-.176 0 0zM50.465 31.556c6.978.196 12.71 4.827 13.938 11.725.21 1.176.284 2.378.377 3.57.039.503-.245.98-.787.986-.56.007-.811-.461-.847-.963-.072-.993-.122-1.99-.259-2.975-.722-5.198-4.867-9.499-10.041-10.422-.779-.139-1.576-.175-2.364-.258-.5-.052-1.152-.083-1.263-.702-.092-.52.346-.934.841-.96.135-.008.27-.001.405 0-.135-.001 6.978.195 0 0z"/><path d="M61.07 45.303c-.012.087-.018.292-.069.485-.185.7-1.247.789-1.492.082-.072-.21-.083-.449-.084-.675-.002-1.478-.323-2.954-1.069-4.24a7.89 7.89 0 0 0-3.31-3.105c-.83-.407-1.727-.66-2.637-.81-.398-.066-.8-.106-1.2-.161-.483-.067-.742-.376-.72-.853.022-.448.35-.77.836-.742 1.602.091 3.149.437 4.572 1.191 2.896 1.533 4.55 3.954 5.032 7.185.022.147.057.292.068.439.028.363.045.726.073 1.204-.028-.478-.012.087 0 0z"/><path d="M56.73 45.134c-.585.01-.897-.312-.957-.848-.042-.373-.075-.751-.164-1.114-.176-.715-.556-1.378-1.157-1.816a3.018 3.018 0 0 0-.943-.455c-.428-.124-.873-.09-1.3-.195-.465-.113-.721-.489-.648-.924.066-.396.452-.706.885-.674 2.705.195 4.639 1.594 4.915 4.779.019.224.042.462-.008.677-.085.368-.358.552-.624.57.266-.018-.584.01 0 0z"/></g></svg>