<svg width="34" height="34" viewBox="0 0 34 34" fill="none" xmlns="http://www.w3.org/2000/svg">
<path fill-rule="evenodd" clip-rule="evenodd" d="M17.1058 2.04008L33.1351 18.0469C33.6878 18.63 33.964 19.31 33.964 20.0872C33.964 20.8795 33.6878 21.5514 33.1348 22.1047L22.1271 33.1347C21.5443 33.6877 20.8637 33.9642 20.0871 33.9642C19.2944 33.9642 18.6223 33.6877 18.0693 33.1347L2.04023 17.083C1.47213 16.5298 0.990236 15.7755 0.594093 14.8187C0.197949 13.8619 0.000152588 12.9878 0.000152588 12.1957V2.86958C0.000152588 2.0923 0.284009 1.41976 0.851959 0.851806C1.41991 0.284171 2.09245 0 2.86974 0H12.1959C12.9881 0 13.8623 0.198032 14.8191 0.594018C15.7756 0.989926 16.5377 1.47174 17.1058 2.04008ZM7.17384 10.0437C7.96605 10.0437 8.64212 9.76334 9.20292 9.20285C9.76349 8.64228 10.0436 7.96621 10.0436 7.17408C10.0436 6.38195 9.76318 5.70556 9.20292 5.14531C8.64236 4.58474 7.96605 4.30434 7.17384 4.30434C6.38194 4.30434 5.70564 4.58474 5.14507 5.14531C4.58458 5.70556 4.30441 6.38187 4.30441 7.17408C4.30441 7.96621 4.58458 8.64228 5.14507 9.20285C5.70556 9.76334 6.38194 10.0437 7.17384 10.0437Z" fill="#1FDB84"/>
</svg>
