<svg width="34" height="34" viewBox="0 0 34 34" fill="none" xmlns="http://www.w3.org/2000/svg">
<path fill-rule="evenodd" clip-rule="evenodd" d="M33.1156 28.9116L19.7835 15.7593L4.20729 0.393113C4.20729 0.393113 3.31887 -0.559256 2.74144 1.01618C2.16401 2.59163 1.80512 4.34281 1.93096 5.88028C2.07439 7.63282 2.74928 9.15011 3.88277 10.2683L16.0424 22.264L17.6463 20.6817L28.8878 33.0824C30.0061 34.1856 31.9309 34.2512 33.1156 33.0824C34.2813 31.9325 34.2813 30.0615 33.1156 28.9116Z" fill="#1FDB84"/>
<path fill-rule="evenodd" clip-rule="evenodd" d="M10.5917 19.6671C10.4897 19.5665 10.3257 19.5665 10.2237 19.6671L0.884334 28.8805C-0.281228 30.0304 -0.281228 31.9014 0.884334 33.0513C1.99159 34.1436 3.90708 34.24 5.11209 33.0513L14.4464 23.8428C14.5505 23.7402 14.5505 23.5723 14.4464 23.4697L10.5917 19.6671Z" fill="#1FDB84"/>
<path fill-rule="evenodd" clip-rule="evenodd" d="M32.6939 6.11397C32.6174 6.03848 32.4944 6.03847 32.4178 6.11397L27.1537 11.3071L25.7443 9.91683L31.0047 4.72739C31.0827 4.65043 31.0827 4.52453 31.0047 4.44757L29.8753 3.33338C29.7987 3.25788 29.6758 3.25788 29.5992 3.33338L24.3351 8.5265L22.9258 7.13624L28.1862 1.94686C28.2642 1.8699 28.2642 1.744 28.1862 1.66704L27.0569 0.552909C26.9803 0.477412 26.8573 0.477412 26.7808 0.552909L19.8725 7.36808C19.0105 8.21847 18.4957 9.34761 18.423 10.5476C18.4046 10.8517 18.3347 11.1507 18.2188 11.4352L22.7961 15.9508C23.0845 15.8363 23.3877 15.7675 23.6958 15.7493C24.9122 15.6777 26.0568 15.1698 26.9188 14.3194L33.8234 7.50805C33.9014 7.43109 33.9014 7.30519 33.8234 7.22823L32.6939 6.11397Z" fill="#1FDB84"/>
</svg>
