<svg width="29" height="38" viewBox="0 0 29 38" fill="none" xmlns="http://www.w3.org/2000/svg">
<path fill-rule="evenodd" clip-rule="evenodd" d="M13.0519 18.8245C13.0519 18.1611 7.28003 15.2944 7.28003 11.8558C7.28003 9.25191 8.71764 7.00021 10.8377 5.76021C11.513 7.19232 12.892 8.65563 14.7907 9.73598C17.2801 11.1495 19.92 11.498 21.633 10.823C21.6849 11.1635 21.7369 11.5016 21.7369 11.8558C21.7369 15.2944 15.6373 18.1611 15.9672 18.8245C20.593 18.1287 24.146 14.2317 24.146 9.48467C24.1461 4.24685 19.8311 0 14.5084 0C9.18823 0 4.87073 4.24685 4.87073 9.48467C4.87073 14.2317 8.42827 18.1286 13.0519 18.8245Z" fill="#1FDB84"/>
<path fill-rule="evenodd" clip-rule="evenodd" d="M21.737 21.3402H20.5322C20.5322 24.6146 17.8354 27.2683 14.5085 27.2683C11.1814 27.2683 8.48508 24.6146 8.48508 21.3402H7.28011C3.28947 21.3402 0.0517235 24.5245 0.0517235 28.4536V35.5672C0.0517235 36.878 1.12949 37.9384 2.46127 37.9384H26.5557C27.8873 37.9384 28.9652 36.878 28.9652 35.5672V28.4536C28.9652 24.5245 25.7321 21.3402 21.737 21.3402Z" fill="#1FDB84"/>
</svg>
